<svg width="61" height="61" viewBox="0 0 61 61" fill="none" xmlns="http://www.w3.org/2000/svg">
<path d="M46.9418 6.08218C47.1715 3.14725 49.6025 0.5663 52.4929 0.0857415C56.1006 -0.554222 59.7364 2.4815 59.9966 6.08218C60.2943 9.53751 57.3617 12.8217 53.9369 13.0819C52.1694 13.2413 50.4276 12.517 49.1149 11.359C45.5681 14.8916 42.0354 18.4384 38.491 21.9758C39.5365 23.3495 40.2515 25.0021 40.357 26.7368C40.5187 28.8302 39.778 30.9353 38.4863 32.5739C41.2853 35.3939 44.11 38.1905 46.909 41.0106C47.563 40.6848 48.2522 40.3824 48.9977 40.3777C51.3395 40.3261 53.4774 42.4499 53.4751 44.7848C53.4165 46.9508 51.5622 48.8965 49.4149 49.0981C46.9582 49.2786 44.6422 47.0164 44.7383 44.5597C44.7617 43.8471 45.0477 43.186 45.3782 42.5672C42.5793 39.7424 39.7569 36.9387 36.9462 34.1234C35.7225 35.0681 34.2761 35.7221 32.7407 35.9472C32.7407 39.6369 32.7243 43.3267 32.7477 47.0164C35.8139 47.6118 38.3199 50.528 38.1886 53.6903C38.0784 57.3098 34.534 60.458 30.9099 59.9704C27.5835 59.5672 24.8056 56.3346 25.1221 52.9566C25.3659 50.0662 27.7288 47.579 30.5489 47.0094C30.5606 43.322 30.5583 39.6322 30.5489 35.9425C28.9736 35.7713 27.6046 34.9603 26.2684 34.1773C21.6292 38.8797 16.9221 43.5142 12.2759 48.2073C13.162 49.7849 13.3777 51.7517 12.6955 53.4442C11.65 56.2689 8.54398 58.3131 5.51294 57.7505C2.66475 57.2347 0.287741 54.7124 0.0251921 51.815C-0.295962 48.4253 2.49831 45.1669 5.84582 44.7824C7.68366 44.5363 9.53557 45.2723 10.8999 46.4843C15.5344 41.8498 20.1735 37.2177 24.8009 32.5786C23.7156 31.1674 22.9959 29.4467 22.9279 27.6581C22.8131 25.614 23.5609 23.5839 24.8033 21.9781C21.9879 19.1768 19.196 16.3521 16.3665 13.5601C15.7195 13.893 15.0304 14.1907 14.2896 14.1907C11.9688 14.2376 9.845 12.1489 9.82391 9.83523C9.82859 7.5848 11.8305 5.55474 14.0692 5.46097C16.4064 5.4094 18.5513 7.51682 18.556 9.85164C18.5654 10.6205 18.2724 11.3425 17.9207 12.0106C20.7127 14.8213 23.5398 17.5992 26.3153 20.4286C27.7992 19.3573 29.555 18.5884 31.4092 18.558C33.4065 18.4829 35.3779 19.2237 36.9462 20.4427C40.5398 16.8397 44.1452 13.2437 47.7412 9.64066C47.1669 8.55295 46.8269 7.31991 46.9418 6.08218ZM51.6911 2.50963C49.1196 3.4731 48.3483 7.0011 49.8767 9.15541C51.3676 11.3496 54.9285 11.509 56.7077 9.59378C58.283 7.87783 58.215 4.88899 56.492 3.29728C55.2238 2.12519 53.2711 1.91187 51.6911 2.50963ZM13.4105 7.7489C11.8399 8.17085 11.5633 10.4377 12.6463 11.4855C13.4011 12.1349 14.5756 12.1677 15.4312 11.7035C16.4275 11.1128 16.5799 9.71099 16.1415 8.72643C15.6797 7.72311 14.3904 7.45353 13.4105 7.7489ZM30.0543 20.9115C28.697 21.2139 27.4335 21.9594 26.5591 23.0447C24.4517 25.5882 24.6345 29.7351 27.0256 32.0324C29.5081 34.4703 33.955 34.4305 36.3765 31.9222C38.8731 29.4069 38.7957 24.831 36.1632 22.4399C34.5645 20.9232 32.1734 20.4357 30.0543 20.9115ZM48.3179 42.6679C46.8926 43.0336 46.5714 44.9465 47.2747 46.067C47.9404 47.0305 49.3751 47.1454 50.3503 46.6203C51.3841 45.992 51.527 44.4753 50.9715 43.4861C50.4347 42.607 49.2485 42.3866 48.3179 42.6679ZM5.49653 47.0328C4.70654 47.1993 3.95874 47.5814 3.39379 48.1627C1.87476 49.7005 1.79037 52.3706 3.0867 54.0677C4.72764 56.1892 8.37285 56.1846 10.0138 54.0701C11.3383 52.3354 11.2164 49.595 9.61762 48.0713C8.54163 47.0399 6.92649 46.7328 5.49653 47.0328ZM30.0965 49.3536C27.4194 50.1483 26.5028 53.7208 27.9703 55.9478C29.3838 58.2052 32.9517 58.4631 34.7966 56.6088C36.4562 54.9117 36.4305 51.829 34.6676 50.2162C33.4627 49.0981 31.6272 48.8472 30.0965 49.3536Z" fill="#F86D00"/>
</svg>
