<svg width="47" height="32" viewBox="0 0 47 32" fill="none" xmlns="http://www.w3.org/2000/svg">
<path d="M33.814 1.09668C33.814 0.616211 34.2365 0.143664 34.7352 0.188543C37.2857 0.135744 39.8388 0.138384 42.3892 0.192503C42.9328 0.172703 43.2934 0.737648 43.2631 1.23923C43.267 4.1458 43.2631 7.05368 43.2644 9.96024C43.1999 11.7607 43.2447 13.5637 43.2315 15.3655C43.2999 20.2824 43.2486 25.2019 43.2657 30.1187C44.0645 30.1346 44.8621 30.0607 45.6609 30.1135C46.057 30.1359 46.565 30.0765 46.815 30.4606C47.2441 31.0308 46.8914 32.0116 46.1215 31.9997H0.818569C0.432973 31.9509 0.118442 31.6908 0 31.3186V30.8355C0.10923 30.5279 0.315847 30.2072 0.66591 30.1583C1.68978 30.0158 2.72286 30.1306 3.75199 30.1174C3.74936 26.6934 3.75331 23.2695 3.74936 19.8455C3.6954 19.1142 4.51397 18.7657 5.13382 18.8621C7.32896 18.8819 9.52672 18.8344 11.7219 18.8977C12.1285 18.9083 12.6194 18.8198 12.9221 19.1644C13.2813 19.5168 13.134 20.0633 13.1603 20.5134C13.2313 23.7143 13.1655 26.9165 13.1932 30.1187C15.058 30.1174 16.9215 30.1174 18.7863 30.1187C18.7863 25.1134 18.7863 20.1081 18.7863 15.1028C18.7902 14.7095 18.7587 14.3135 18.8152 13.9228C18.9534 13.4212 19.5285 13.2166 20.001 13.2536C22.458 13.2707 24.915 13.2232 27.3707 13.2945C27.7787 13.2932 28.163 13.6403 28.188 14.0508C28.213 17.4378 28.2433 20.8249 28.2288 24.2132C28.1498 26.1813 28.267 28.1507 28.2301 30.1187C30.0936 30.1187 31.9571 30.1174 33.8206 30.1201C33.8193 20.446 33.8311 10.7707 33.814 1.09668ZM35.7288 2.07213C35.7315 11.4201 35.7301 20.7681 35.7288 30.1161C36.9356 30.1557 38.1424 30.0303 39.3492 30.1135C40.0072 30.1293 40.6639 30.1122 41.3219 30.1201C41.3246 20.7694 41.3246 11.4188 41.3219 2.06817C39.4571 2.07213 37.5923 2.06421 35.7288 2.07213ZM20.6945 30.1187C22.5593 30.1187 24.4228 30.1187 26.2876 30.1187C26.289 25.1359 26.2863 20.1543 26.289 15.1715C24.4242 15.1675 22.5607 15.1728 20.6972 15.1688C20.6919 20.1517 20.6958 25.1359 20.6945 30.1187ZM5.65892 20.78C5.66023 23.8938 5.6576 27.0063 5.66023 30.1201C7.52373 30.1188 9.38722 30.1188 11.2507 30.1201C11.2547 27.0063 11.2507 23.8938 11.252 20.78C9.38722 20.78 7.52373 20.78 5.65892 20.78Z" fill="#F96E00"/>
</svg>
