<svg width="60" height="56" viewBox="0 0 60 56" fill="none" xmlns="http://www.w3.org/2000/svg">
<path d="M0.00163158 5.25469C-0.0358445 2.47332 2.48755 -0.0593208 5.25578 0.00600516C16.0839 0.000980093 26.9095 0.00851764 37.7376 0.00349257C38.5321 0.00851764 39.3341 -0.0392205 40.1211 0.109019C42.4346 0.629114 44.3334 2.84266 44.2909 5.26474C44.2934 8.7647 44.3034 12.2622 44.2859 15.7621C47.7662 15.7646 51.2465 15.7646 54.7268 15.7646C57.51 15.7119 60.0259 18.2747 59.9634 21.0686C59.9634 28.4479 59.9609 35.8297 59.9659 43.2116C60.0484 45.4151 58.5543 47.4954 56.5406 48.2869C55.3339 48.7944 53.9997 48.601 52.728 48.6185C52.708 49.915 52.763 51.214 52.7155 52.5105C52.6856 53.6436 51.9136 54.714 50.8667 55.116C49.8349 55.4099 48.6381 55.1386 47.8911 54.3496C46.0048 52.4753 44.1585 50.5582 42.2522 48.7015C35.1642 48.7241 28.0762 48.704 20.9908 48.714C18.285 48.7844 15.7616 46.4251 15.6816 43.6965C15.6467 40.7694 15.6941 37.8423 15.6617 34.9152C14.5174 36.0835 13.3631 37.2443 12.2089 38.4026C11.4693 39.1965 10.2876 39.5282 9.24574 39.2317C8.09148 38.8423 7.29449 37.6287 7.31447 36.4152C7.30448 35.2267 7.32696 34.0358 7.31197 32.8474C5.93285 32.8147 4.47878 33.0257 3.18211 32.4303C1.26083 31.6991 0.00163164 29.6715 0.00413004 27.6338C-0.00336518 20.1741 0.00163158 12.7144 0.00163158 5.25469ZM2.01285 4.99088C1.98537 12.5385 2.00536 20.0862 2.00286 27.6338C1.9304 29.066 3.00222 30.4077 4.35886 30.7569C5.73298 30.9579 7.12709 30.7469 8.50621 30.8725C8.97591 30.9454 9.36567 31.3976 9.32319 31.8851C9.33319 33.6087 9.28572 35.3348 9.33568 37.0584C9.70045 37.1991 10.1801 37.6061 10.5349 37.2167C12.2263 35.5634 13.8803 33.8674 15.5492 32.1916C16.0239 31.7393 16.4237 31.179 17.0083 30.865C17.8253 30.7042 18.6647 30.8223 19.4917 30.7946C26.145 30.762 32.7982 30.8223 39.449 30.767C41.043 30.7293 42.3846 29.2293 42.2672 27.6313C42.2397 20.6766 42.3147 13.7219 42.2972 6.76473C42.2722 5.63409 42.4521 4.39289 41.815 3.38788C41.2229 2.43312 40.0861 1.97081 38.9943 2.01855C27.6565 2.01855 16.3162 2.00347 4.97846 2.02608C3.38448 1.98086 1.99786 3.39793 2.01285 4.99088ZM44.3134 17.7922C44.3309 21.0686 44.3259 24.3475 44.3184 27.6238C44.3084 29.3348 43.4465 31.0057 42.0423 31.978C41.9774 34.086 40.3584 36.0735 38.2373 36.3222C36.1186 36.5709 34.1799 34.8875 33.7027 32.8725C32.8432 32.88 31.9838 32.8876 31.1243 32.8876C30.6496 34.7594 28.9657 36.3448 26.9919 36.3473C25.0182 36.3473 23.3642 34.7343 22.8746 32.8825C21.1407 32.8951 19.4043 32.8423 17.6704 32.9202C17.6679 36.3448 17.6729 39.7669 17.6654 43.1915C17.6479 44.0332 17.7878 44.9301 18.3424 45.5935C18.9646 46.3924 20.0039 46.7316 20.9858 46.7015C28.1512 46.699 35.3166 46.6965 42.4821 46.7015C42.8943 46.6563 43.2816 46.8196 43.5514 47.1311C45.5026 49.116 47.4614 51.0909 49.4351 53.0481C49.8224 53.5507 50.7843 53.1662 50.7168 52.528C50.7693 50.9175 50.6968 49.3045 50.7368 47.6964C50.7018 47.2392 50.9841 46.7869 51.4314 46.6663C52.9304 46.4653 54.4769 46.8422 55.951 46.4352C57.2027 46.0583 57.9897 44.7543 57.9572 43.4729C57.9747 36.0936 57.9522 28.7117 57.9672 21.3299C57.9847 20.3852 57.8348 19.345 57.1027 18.6741C56.4382 17.943 55.4138 17.7445 54.4694 17.7696C51.0841 17.7948 47.6987 17.742 44.3134 17.7922ZM24.9133 32.9127C25.5004 34.8222 28.4885 34.7946 29.1356 32.9378C27.729 32.8599 26.3199 32.88 24.9133 32.9127ZM35.6964 32.9278C36.341 34.8147 39.3715 34.8122 39.9562 32.8725C38.5371 32.9252 37.1155 32.8448 35.6964 32.9278Z" fill="#F86D00"/>
<path d="M10.1052 12.453C12.676 11.5057 15.6267 13.9002 15.4843 16.5886C15.3893 18.7619 13.3906 20.6614 11.222 20.6087C9.1358 20.5232 7.26948 18.664 7.17954 16.5635C7.11458 14.7343 8.43624 13.066 10.1052 12.453ZM10.33 14.4454C9.09332 14.973 8.86347 16.7117 9.54553 17.762C10.1851 18.679 11.5118 18.7996 12.4637 18.3499C13.8478 17.6263 13.8503 15.2871 12.4987 14.5283C11.8341 14.1816 11.0196 14.1665 10.33 14.4454Z" fill="#F86D00"/>
<path d="M21.2906 12.3476C23.6965 11.7597 26.2374 13.8778 26.2999 16.3225C26.3673 18.6968 24.0763 20.8651 21.7128 20.5862C19.6716 20.3174 17.9352 18.3978 17.9902 16.3024C18.0701 14.4481 19.5192 12.7924 21.2906 12.3476ZM21.0982 14.4657C19.859 15.0461 19.6741 16.8375 20.4386 17.8727C21.1132 18.6893 22.3524 18.7772 23.2643 18.3526C24.3636 17.8074 24.5535 16.2697 24.0413 15.2546C23.4642 14.2396 22.1025 14.0335 21.0982 14.4657Z" fill="#F86D00"/>
<path d="M32.0463 12.3625C34.5472 11.6917 37.1955 14.0032 37.118 16.5459C37.0256 18.7771 34.9519 20.7243 32.7233 20.6062C30.6072 20.4353 28.7584 18.4781 28.8058 16.3223C28.8683 14.4756 30.2949 12.8299 32.0463 12.3625ZM32.0513 14.4128C30.1924 15.0635 30.4573 18.3449 32.4685 18.5534C33.8401 18.9278 35.3042 17.8022 35.1218 16.3374C35.2242 14.7444 33.3929 13.8223 32.0513 14.4128Z" fill="#F86D00"/>
<path d="M47.309 28.2568C49.8199 27.2267 52.7705 29.5005 52.783 32.1362C52.818 34.4075 50.7143 36.4577 48.4583 36.3673C46.4246 36.2492 44.6207 34.4628 44.4833 32.4151C44.3634 30.5985 45.6551 28.8849 47.309 28.2568ZM47.5688 30.2317C46.4271 30.7643 46.1997 32.3321 46.7494 33.3698C47.5164 34.7392 49.8574 34.6939 50.5594 33.2869C50.9267 32.4377 50.8942 31.3221 50.2297 30.6286C49.5601 29.9276 48.4208 29.8573 47.5688 30.2317Z" fill="#F86D00"/>
</svg>
