<svg width="51" height="48" viewBox="0 0 51 48" fill="none" xmlns="http://www.w3.org/2000/svg">
<path d="M1.23431 0.933414C1.91148 0.308421 2.84082 -0.00461952 3.75602 0.000815209C17.9602 -0.000271736 32.1644 -0.000271736 46.3697 0.000815209C47.4414 -0.014402 48.5175 0.454071 49.2121 1.2758C49.8077 1.96493 50.1153 2.88122 50.0958 3.78882C50.0979 7.08878 50.0968 10.3898 50.0968 13.6898C50.1001 14.6757 49.7023 15.6561 48.999 16.3485C49.7012 17.0398 50.1001 18.0169 50.0958 19.0006C50.0979 22.3006 50.0968 25.6005 50.0958 28.9005C50.1208 29.9179 49.7273 30.9396 48.9979 31.6537C49.7077 32.3483 50.1055 33.3363 50.0958 34.3276C50.099 37.2993 50.0957 40.271 50.0968 43.2428C50.0957 44.071 50.161 44.934 49.8229 45.7134C49.2958 47.1003 47.8469 48.0307 46.373 47.9992C32.1709 47.9992 17.97 47.9992 3.76907 47.9992C2.95386 48.0101 2.13539 47.7601 1.48105 47.271C0.557144 46.6003 0.00932324 45.4688 0.00932324 44.333C0.00714935 40.9993 0.00823648 37.6656 0.00823648 34.332C-0.00589381 33.3374 0.396276 32.3526 1.10062 31.6505C0.407145 30.9603 0.00497546 29.994 0.00932324 29.0146C0.0082363 25.6777 0.00606264 22.3397 0.0104104 19.0017C0.00497569 18.0158 0.406058 17.0398 1.10605 16.3452C0.310407 15.5724 -0.0569805 14.4463 0.0071493 13.3507C0.0114971 10.1279 0.00280162 6.904 0.0114972 3.68121C0.00823635 2.64753 0.453884 1.61602 1.23431 0.933414ZM3.13973 2.18666C2.51582 2.39536 2.0843 3.03339 2.09952 3.68773C2.09408 7.01922 2.09517 10.3507 2.09843 13.6822C2.06039 14.5289 2.79625 15.3061 3.64624 15.2952C17.8548 15.2974 32.0622 15.2941 46.2708 15.2974C46.6773 15.3213 47.0969 15.2148 47.4164 14.9539C47.8719 14.6115 48.0458 14.0148 48.011 13.4648C48.0045 10.204 48.0132 6.94422 48.0056 3.68339C48.036 2.81057 47.2414 2.03884 46.3697 2.08775C32.1688 2.08775 17.9667 2.08775 3.76581 2.08666C3.55385 2.08992 3.33972 2.11492 3.13973 2.18666ZM3.37559 17.4256C2.6343 17.5506 2.07235 18.2615 2.09734 19.0093C2.09408 22.2691 2.09952 25.5299 2.09517 28.7896C1.97561 29.6929 2.71147 30.6375 3.65494 30.5853C17.9287 30.5853 32.2025 30.5853 46.4762 30.5842C47.0784 30.6016 47.6523 30.2005 47.8762 29.6472C48.0143 29.3462 48.011 29.0081 48.0099 28.6831C48.0056 25.456 48.0121 22.2278 48.0066 19.0006C48.0338 18.1713 47.3164 17.3876 46.4751 17.4039C32.3818 17.4039 18.2896 17.4028 4.19732 17.4039C3.92341 17.405 3.64733 17.3865 3.37559 17.4256ZM3.17016 32.782C2.51799 32.9853 2.07235 33.6526 2.09517 34.3309C2.09735 37.4841 2.09626 40.6373 2.09626 43.7906C2.09952 44.1906 2.06039 44.6134 2.24082 44.9851C2.49517 45.5688 3.12342 45.9395 3.75602 45.9134C17.9591 45.9123 32.1622 45.9134 46.3654 45.9123C47.2306 45.9601 48.0262 45.2025 48.0056 44.334C48.0143 41.1091 48.0045 37.8852 48.0099 34.6613C48.011 34.3113 48.0208 33.9439 47.8621 33.6222C47.6273 33.0863 47.0675 32.7113 46.4827 32.7048C32.3872 32.7037 18.2917 32.7037 4.19624 32.7048C3.85385 32.7092 3.4995 32.6679 3.17016 32.782Z" fill="#F86D00"/>
<path d="M32.7068 6.03098C33.4013 6.02337 34.0959 6.02989 34.7894 6.03098C34.7948 7.73205 34.7872 9.43312 34.7926 11.1353C34.0981 11.1288 33.4024 11.1266 32.7079 11.1364C32.7024 9.43421 32.7046 7.73314 32.7068 6.03098Z" fill="#F86D00"/>
<path d="M36.647 6.03129C37.3415 6.02912 38.0372 6.02586 38.7317 6.03129C38.735 7.73128 38.7339 9.43126 38.7317 11.1312C38.0361 11.1312 37.3415 11.1323 36.6459 11.1312C36.648 9.43126 36.6448 7.73128 36.647 6.03129Z" fill="#F86D00"/>
<path d="M40.8143 6.04403C41.5121 6.01795 42.2121 6.02121 42.911 6.03969C42.9034 7.73532 42.9089 9.42987 42.9089 11.1255C42.2187 11.1407 41.5295 11.1201 40.8404 11.1396C40.7904 9.44291 40.8393 7.74184 40.8143 6.04403Z" fill="#F86D00"/>
<path d="M7.00598 8.14292C7.21141 6.8462 8.53531 5.85164 9.84073 6.05055C10.7559 6.15707 11.5407 6.8125 11.8983 7.64945C15.6646 7.65488 19.4319 7.65271 23.1993 7.65054C23.1982 8.34618 23.1971 9.04182 23.1993 9.73747C19.3961 9.7429 15.5928 9.73203 11.7896 9.7429C11.2798 10.6951 10.1592 11.3081 9.08204 11.0907C7.74292 10.8842 6.72881 9.47878 7.00598 8.14292Z" fill="#F86D00"/>
<path d="M8.47988 21.5585C9.20487 21.2215 10.0907 21.2661 10.7777 21.6748C11.2853 21.9574 11.6592 22.4302 11.8962 22.9541C15.6635 22.9606 19.4309 22.953 23.1971 22.9584C23.1993 23.6541 23.1971 24.3497 23.1982 25.0465C19.3982 25.041 15.5994 25.0476 11.7994 25.0432C11.5059 25.5356 11.0972 25.9725 10.5636 26.2041C9.84508 26.541 8.96575 26.5062 8.2788 26.1073C7.5288 25.6899 7.00924 24.8802 6.96794 24.0193C6.89729 22.99 7.54076 21.9715 8.47988 21.5585Z" fill="#F86D00"/>
<path d="M32.7046 21.5679C33.4002 21.5625 34.0948 21.5647 34.7904 21.569C34.7937 23.1918 34.7861 24.8135 34.7948 26.4353C34.098 26.4353 33.4002 26.4342 32.7035 26.4353C32.7057 24.8125 32.7057 23.1896 32.7046 21.5679Z" fill="#F86D00"/>
<path d="M36.6503 21.5681C37.3437 21.5594 38.0372 21.5681 38.7318 21.567C38.7339 23.1898 38.7339 24.8126 38.7318 26.4365C38.0372 26.4322 37.3427 26.4344 36.6481 26.4387C36.647 24.8148 36.6427 23.192 36.6503 21.5681Z" fill="#F86D00"/>
<path d="M40.8241 21.5645C41.5165 21.5634 42.2089 21.5656 42.9013 21.5645C42.9165 23.1873 42.9035 24.8112 42.9067 26.4351C42.21 26.4286 41.5144 26.446 40.8187 26.4308C40.8241 24.8091 40.8122 23.1873 40.8241 21.5645Z" fill="#F86D00"/>
<path d="M7.09181 38.4015C7.38854 37.4863 8.2331 36.7787 9.18852 36.657C10.3276 36.4874 11.4668 37.2103 11.8983 38.2581C15.6645 38.2624 19.4308 38.2624 23.1982 38.2581C23.196 38.957 23.2014 39.6559 23.1938 40.3548C19.3928 40.3417 15.5917 40.3494 11.7907 40.3504C11.4428 40.9733 10.8635 41.47 10.1668 41.6515C9.36896 41.8743 8.47223 41.6602 7.85484 41.1102C7.08854 40.47 6.7592 39.3483 7.09181 38.4015Z" fill="#F86D00"/>
<path d="M32.7068 36.8669C33.4025 36.8713 34.097 36.8691 34.7927 36.8691C34.7894 38.5691 34.7905 40.2702 34.7916 41.9712C34.097 41.981 33.4035 41.9636 32.709 41.9734C32.7025 40.2713 32.7036 38.5691 32.7068 36.8669Z" fill="#F86D00"/>
<path d="M36.647 36.8701C37.3415 36.8679 38.0361 36.8701 38.7317 36.8701C38.735 38.5723 38.7318 40.2744 38.7328 41.9766C38.0383 41.969 37.3437 41.9646 36.6492 41.9787C36.6437 40.2755 36.6459 38.5723 36.647 36.8701Z" fill="#F86D00"/>
<path d="M40.8328 36.8655C41.523 36.8753 42.2133 36.8644 42.9035 36.8709C42.9176 38.572 42.8969 40.2731 42.9132 41.9741C42.2143 41.9654 41.5154 41.973 40.8165 41.9741C40.8339 40.2709 40.7991 38.5676 40.8328 36.8655Z" fill="#F86D00"/>
</svg>
