<svg width="54" height="63" viewBox="0 0 54 63" fill="none" xmlns="http://www.w3.org/2000/svg">
<path d="M16.835 3.91173C17.1843 1.93141 18.9064 0.290585 20.904 0.0519635C22.225 -0.157138 23.551 0.288125 24.6211 1.04827C25.6249 0.342245 26.8401 -0.107938 28.08 0.0224432C30.1047 0.155284 31.9276 1.72723 32.3655 3.70754C32.7517 5.29917 32.272 7.0753 31.0936 8.22167C29.1969 10.111 27.31 12.0101 25.4158 13.8994C25.064 14.3348 24.353 14.4455 23.9545 14.0076C22.0012 12.0913 20.0774 10.138 18.1363 8.20445C17.0219 7.10728 16.5324 5.44185 16.835 3.91173ZM19.5657 2.80226C18.4512 3.83546 18.434 5.77888 19.546 6.82192C21.2336 8.51933 22.9311 10.2094 24.6211 11.9043C26.3161 10.2094 28.0185 8.51933 29.7086 6.817C30.5721 5.97814 30.7714 4.58085 30.2129 3.52304C29.6274 2.31764 28.1391 1.73707 26.8721 2.10854C26.1046 2.26844 25.6249 2.92526 25.0098 3.34346C24.3653 3.69032 23.861 3.0458 23.4206 2.6768C22.3702 1.69033 20.5546 1.75921 19.5657 2.80226Z" fill="#F86D00"/>
<path d="M44.8407 4.95495C45.623 3.63638 47.6944 3.63638 48.6243 4.79505C49.5985 5.91927 49.1139 7.51336 49.2196 8.85899C49.9478 8.87375 50.7154 8.78027 51.3919 9.11237C52.4374 9.55517 53.1705 10.6548 53.1558 11.7938C53.1656 13.4469 53.1656 15.1 53.1582 16.7532C53.1951 18.3202 51.7929 19.7298 50.2234 19.6855C48.243 19.6929 46.2602 19.7003 44.2822 19.6806C43.6697 19.7273 43.3646 19.0951 42.9636 18.7458C42.8308 18.7335 42.5626 18.7113 42.4273 18.699C42.2379 19.0705 42.0854 19.6092 41.5884 19.6486C40.1862 19.7322 38.7766 19.6904 37.3743 19.6757C36.7396 19.7003 36.3411 19.041 36.4272 18.4629C36.437 15.255 36.4075 12.0447 36.4395 8.83685C36.4247 8.33009 36.8798 7.87252 37.3891 7.8922C38.7889 7.87498 40.1936 7.83808 41.5934 7.92172C42.078 7.966 42.2305 8.49737 42.4175 8.86145C42.7963 8.85899 43.1752 8.85653 43.5565 8.85899C43.9969 7.56502 44.1617 6.1579 44.8407 4.95495ZM46.5357 5.93649C45.8936 7.37068 45.6919 8.96723 45.1211 10.426C44.4372 11.1935 43.2342 10.704 42.3339 10.8295C42.3412 12.7926 42.3339 14.7556 42.3314 16.7187C42.8013 16.7433 43.281 16.6917 43.7435 16.8024C44.2478 17.1222 44.5627 17.8774 45.2663 17.7224C46.9244 17.7077 48.5825 17.7372 50.2381 17.7101C50.7424 17.7224 51.1976 17.2649 51.1803 16.7606C51.2074 15.2747 51.1779 13.7889 51.1951 12.303C51.1705 11.902 51.2443 11.4125 50.8974 11.1197C49.8839 10.2833 48.0659 11.5183 47.3131 10.2538C47.1286 8.91311 47.3623 7.54534 47.2122 6.19726C47.0621 5.93895 46.8358 5.85039 46.5357 5.93649ZM38.3977 9.84792C38.4026 12.4703 38.4002 15.0927 38.3977 17.715C39.0521 17.7126 39.7089 17.72 40.3658 17.7224C40.3633 15.0976 40.3633 12.4703 40.3658 9.84546C39.7089 9.85038 39.0546 9.85284 38.3977 9.84792Z" fill="#F86D00"/>
<path d="M5.2997 7.08038C8.87175 6.1259 12.8448 8.59329 13.6148 12.1972C14.5693 15.7839 12.06 19.7593 8.4437 20.5022C4.89133 21.4124 0.962567 18.9499 0.204859 15.3731C-0.744735 11.8134 1.71781 7.86513 5.2997 7.08038ZM6.2124 8.91063C4.20496 9.17385 2.48044 10.795 2.09421 12.7778C1.68337 14.6056 2.45584 16.6105 3.9565 17.7175C5.39811 18.822 7.47442 19.0262 9.08824 18.1898C10.8226 17.3632 11.9469 15.4297 11.8214 13.5158C11.7476 10.7286 8.96278 8.43585 6.2124 8.91063Z" fill="#F86D00"/>
<path d="M6.34766 11.0041C6.8692 10.6006 7.73761 10.9278 7.8557 11.5748C7.9049 11.9782 7.8926 12.3866 7.89998 12.7925C8.49778 12.8466 9.29977 12.6228 9.68846 13.2279C10.0944 13.7421 9.76719 14.5883 9.1374 14.731C8.72657 14.7827 8.31327 14.7679 7.89998 14.7753C7.84586 15.3706 8.07218 16.175 7.46454 16.5563C6.96268 16.9721 6.07459 16.6449 5.96635 16.0028C5.90977 15.5969 5.92453 15.1861 5.91469 14.7777C5.32426 14.7187 4.5395 14.9352 4.14342 14.3595C3.73259 13.8454 4.0278 12.9598 4.68464 12.8368C5.09302 12.7827 5.50631 12.7999 5.91715 12.7925C5.97127 12.1996 5.74986 11.3878 6.34766 11.0041Z" fill="#F86D00"/>
<path d="M16.156 21.5032C16.9014 19.5155 18.7932 18.0174 20.9039 17.7689C22.1832 17.582 23.4821 17.8919 24.6211 18.4774C26.1538 17.673 28.0234 17.4491 29.6545 18.0961C31.6496 18.8366 33.1773 20.7259 33.4233 22.8489C33.5193 23.7566 33.4676 24.6717 33.4775 25.5844C37.0938 25.6065 40.7077 25.5672 44.324 25.6016C44.9538 25.5696 45.3769 26.2142 45.2834 26.7972C45.2908 38.4576 45.2883 50.1156 45.2834 61.7737C45.4064 62.4748 44.7889 63.1094 44.0854 62.984C31.1182 62.9815 18.1486 62.9864 5.17905 62.9815C4.58617 63.075 3.92687 62.6593 3.96623 62.0123C3.93917 50.278 3.95885 38.5413 3.95639 26.807C3.87029 26.2289 4.28358 25.5672 4.91582 25.6065C8.53216 25.5672 12.1509 25.5992 15.7673 25.5918C15.7845 24.2265 15.6197 22.7997 16.156 21.5032ZM18.3381 21.5254C17.5213 22.7234 17.7649 24.2289 17.7353 25.5918C19.0441 25.5819 20.3553 25.6016 21.6666 25.5819C21.6936 24.3003 21.5362 22.9719 21.9741 21.7369C22.1906 21.058 22.5891 20.4626 22.9827 19.8747C21.2803 19.3384 19.2754 19.978 18.3381 21.5254ZM26.2792 19.8772C26.6581 20.4626 27.0492 21.0506 27.2633 21.7222C27.7036 22.9645 27.556 24.3003 27.5708 25.5918C28.882 25.5819 30.1932 25.5992 31.5045 25.5844C31.4823 24.2166 31.7185 22.7086 30.8919 21.5082C29.9571 19.978 27.9669 19.336 26.2792 19.8772ZM23.6396 25.5844C24.2939 25.5893 24.9483 25.5918 25.6052 25.5918C25.6347 24.01 25.7651 22.2462 24.6187 20.9792C23.4846 22.2486 23.5977 24.0051 23.6396 25.5844ZM5.92446 27.5598C5.92692 38.711 5.92692 49.8647 5.92446 61.016C16.4217 61.0135 26.9164 61.0086 37.4136 61.0184C37.4111 49.8647 37.4087 38.7135 37.4136 27.5598C34.1343 27.5622 30.8525 27.5647 27.5732 27.5573C27.5585 28.6201 27.6224 29.6877 27.5363 30.748C27.3912 31.6508 25.9594 31.759 25.679 30.8906C25.5092 29.7935 25.6396 28.6668 25.6052 27.5598C22.9803 27.5622 20.3578 27.5647 17.7329 27.5573C17.7181 28.6176 17.7821 29.6828 17.6984 30.7406C17.5631 31.6459 16.1338 31.7615 15.8411 30.9005C15.6664 29.8009 15.8017 28.6693 15.7648 27.5598C12.4855 27.5622 9.20622 27.5622 5.92446 27.5598ZM39.3817 27.5598C39.3866 38.711 39.3841 49.8598 39.3817 61.0111C40.6929 61.0184 42.0041 61.0086 43.3178 61.016C43.3129 49.8647 43.3178 38.711 43.3154 27.5598C42.0041 27.5622 40.6929 27.5622 39.3817 27.5598Z" fill="#F86D00"/>
</svg>
