<svg width="32" height="32" viewBox="0 0 32 32" fill="none" xmlns="http://www.w3.org/2000/svg">
<path fill-rule="evenodd" clip-rule="evenodd" d="M9 0C4.02944 0 0 4.02944 0 9V23C0 27.9706 4.02944 32 9 32H23C27.9706 32 32 27.9706 32 23V9C32 4.02944 27.9706 0 23 0H9ZM17.3206 7.062C16.4965 7.08254 15.7003 7.50284 15.2102 8.16478C14.6852 8.87259 14.4251 9.75153 14.3641 10.6236C14.358 11.5806 14.3593 12.5376 14.3634 13.4939C13.8188 13.4981 13.2744 13.4975 12.7302 13.4969C12.4762 13.4967 12.2222 13.4964 11.9683 13.4966C11.9697 14.1029 11.9694 14.7091 11.9692 15.3154C11.9689 15.8545 11.9687 16.3937 11.9696 16.933C12.3824 16.9315 12.7952 16.9318 13.208 16.9321C13.5749 16.9323 13.9418 16.9326 14.3087 16.9316C14.3091 17.7484 14.3084 18.5653 14.3076 19.3821C14.306 21.1117 14.3044 22.8414 14.3142 24.571C15.1315 24.5683 15.9491 24.5686 16.7668 24.5689C17.1757 24.569 17.5846 24.5692 17.9935 24.5689C17.9928 23.306 17.993 22.043 17.9932 20.7801C17.9934 19.5164 17.9935 18.2528 17.9928 16.9891C18.3186 16.9876 18.6445 16.9883 18.9704 16.989C19.5273 16.9903 20.0843 16.9915 20.6413 16.9816C20.6981 16.3738 20.7645 15.7669 20.831 15.1598C20.8895 14.6251 20.9481 14.0902 21 13.5548C20.5028 13.5575 20.0054 13.5569 19.508 13.5563C18.9858 13.5557 18.4636 13.5551 17.9415 13.5582C17.9404 13.1661 17.9403 12.7738 17.9402 12.3814C17.9401 12.0675 17.9401 11.7536 17.9394 11.4396C17.9367 11.1678 18.0038 10.8755 18.2044 10.6798C18.3837 10.4984 18.6425 10.4135 18.8937 10.4155C19.1682 10.4158 19.4427 10.4159 19.7172 10.4159C20.1292 10.416 20.5411 10.4161 20.9528 10.4169C20.9521 9.29837 20.9514 8.17984 20.9528 7.06132C20.3473 7.062 19.7421 7.06183 19.1368 7.06166C18.5315 7.06149 17.9261 7.06132 17.3206 7.062Z" fill="white" fill-opacity="0.5"/>
</svg>
