<svg width="32" height="32" viewBox="0 0 32 32" fill="none" xmlns="http://www.w3.org/2000/svg">
<path d="M8.06194 0.0874912C8.51502 0.0265598 8.97435 0 9.43211 0C13.8629 0.00312469 18.2937 3.57941e-08 22.7245 0.00156238C25.0399 0.00781176 27.3366 0.921783 29.0223 2.50756C30.8878 4.2277 32.0002 6.73683 31.9986 9.2772C32.0017 13.7549 31.9986 18.2341 31.9986 22.7134C31.9939 24.7319 31.3065 26.7442 30.0676 28.3409C28.6958 30.1407 26.6491 31.4156 24.4212 31.8328C23.451 32.0343 22.4558 31.9984 21.47 31.9984C17.4094 31.9984 13.3505 31.9968 9.28994 31.9999C6.8933 31.9968 4.51698 31.0203 2.81402 29.3346C1.04232 27.6191 -0.00132065 25.1787 0.00180404 22.7102C0.000241695 18.2357 -0.00132065 13.7596 0.00180404 9.28501C0.00336638 7.11023 0.806411 4.95263 2.22033 3.29967C3.68581 1.56078 5.80747 0.392148 8.06194 0.0874912ZM24.804 5.44164C23.9135 5.78067 23.7151 7.11023 24.4759 7.68986C25.1884 8.34604 26.4835 7.89921 26.6366 6.94306C26.9022 5.93535 25.7399 4.98544 24.804 5.44164ZM14.5222 8.13825C12.838 8.44759 11.2663 9.32719 10.1117 10.5911C8.7978 12.0097 8.02913 13.9189 8.00257 15.8515C7.94945 18.0029 8.82124 20.1542 10.357 21.6619C11.9381 23.2586 14.2176 24.132 16.4611 23.9867C18.853 23.8664 21.1434 22.5852 22.5199 20.6308C23.8276 18.82 24.3056 16.4437 23.8088 14.2689C23.3323 12.0535 21.8512 10.0865 19.8654 8.9991C18.2578 8.09763 16.3314 7.79453 14.5222 8.13825Z" fill="white" fill-opacity="0.5"/>
<path d="M14.819 10.7974C17.1735 10.2177 19.7935 11.4926 20.8091 13.6893C21.5356 15.1907 21.5106 17.0405 20.706 18.5091C20.1185 19.6231 19.117 20.5105 17.9437 20.9667C16.2642 21.6385 14.2441 21.3729 12.8067 20.2699C11.2475 19.1294 10.4101 17.0967 10.7288 15.1891C11.0241 13.069 12.7286 11.2473 14.819 10.7974Z" fill="white" fill-opacity="0.5"/>
</svg>
