<svg width="19" height="20" viewBox="0 0 19 20" fill="none" xmlns="http://www.w3.org/2000/svg">
<path d="M3.9508 0.00568104C7.57828 5.72943e-05 11.2072 0.00568098 14.8346 0.0028691C15.1189 -0.0196259 15.4033 0.0900373 15.5643 0.336076C15.9355 0.781759 15.5419 1.54799 14.9663 1.51144C11.2772 1.52691 7.58668 1.50019 3.89758 1.52409C2.60345 1.5494 1.4956 2.74023 1.51101 4.03088C1.5054 7.68351 1.5068 11.3347 1.51101 14.9874C1.47879 16.285 2.60625 17.452 3.89338 17.4899C7.58808 17.4998 11.2828 17.4927 14.9775 17.4927C16.2506 17.5138 17.4131 16.4059 17.4551 15.1279C17.4747 13.4872 17.4523 11.8451 17.4649 10.2058C17.4173 9.7432 17.8809 9.30174 18.3375 9.41C18.717 9.44936 18.9915 9.83037 18.9691 10.2029C18.9635 11.8873 18.9845 13.573 18.9579 15.2573C18.8921 17.2607 17.1106 19.014 15.1133 19.0364C11.3752 19.0491 7.6371 19.0449 3.89898 19.0379C1.83874 19.035 0.0109942 17.2003 0.00539187 15.1336C0.00259073 11.3839 -0.00721343 7.63289 0.00959341 3.88185C0.0264003 1.80669 1.88636 -0.0125961 3.9508 0.00568104Z" fill="#F86D00"/>
<path d="M17.3487 3.60504C17.6176 3.33932 17.8963 2.95972 18.3263 3.03001C18.9467 3.03985 19.2367 3.90872 18.7689 4.3052C15.7801 7.31109 12.7884 10.3156 9.79262 13.3159C9.5027 13.6462 8.93827 13.6617 8.64835 13.3243C7.22397 11.8944 5.79819 10.4646 4.37381 9.03477C4.1049 8.80701 4.00126 8.40772 4.16372 8.08717C4.36401 7.63727 5.03208 7.52058 5.37102 7.8819C6.66935 9.1599 7.95507 10.452 9.252 11.7328C11.9537 9.02633 14.6526 6.31709 17.3487 3.60504Z" fill="#F86D00"/>
</svg>
