<svg width="35" height="60" viewBox="0 0 35 60" fill="none" xmlns="http://www.w3.org/2000/svg">
<path d="M1.87655 1.20891C2.74285 0.461415 3.87063 0.00790998 5.02086 0C13.3894 0.00263666 21.7566 -1.22779e-09 30.1251 0.00131833C32.6976 0.0962381 34.9426 2.43364 34.9638 4.99779C34.9611 17.833 34.9638 30.6683 34.9624 43.5036C35.0285 46.6227 34.9822 49.7459 34.9955 52.8663C34.9783 53.6165 35.0681 54.3837 34.8541 55.1154C34.351 57.1496 32.555 58.8595 30.4342 59.0625H4.55997C2.16708 58.8344 0.224499 56.7014 0 54.3508V5.0703C0.0713115 3.59904 0.742168 2.15942 1.87655 1.20891ZM1.81844 5.14676C1.81316 19.361 1.81712 33.5752 1.8158 47.7895C12.2709 47.7921 22.7246 47.7921 33.1796 47.7895C33.1783 33.5726 33.1823 19.357 33.177 5.14149C33.1506 3.40261 31.6148 1.80479 29.8518 1.81402C21.6179 1.81534 13.3841 1.8127 5.15027 1.81534C3.38201 1.80084 1.84221 3.40393 1.81844 5.14676ZM1.88183 49.6035C1.89108 51.0444 1.79863 52.484 1.88183 53.925C1.82637 55.3158 2.83925 56.588 4.12286 57.0441C4.78579 57.3197 5.51343 57.2392 6.21202 57.2498C14.047 57.2472 21.8834 57.2551 29.7184 57.2458C31.3533 57.2762 32.8852 55.9868 33.0938 54.3627C33.1744 52.7793 33.14 51.1894 33.1453 49.6035C22.7246 49.6035 12.3039 49.6022 1.88183 49.6035Z" fill="#F96E00"/>
<path d="M3.56557 5.13338C3.57613 4.3081 4.32358 3.56852 5.15027 3.56193C13.3352 3.56061 21.5215 3.56061 29.7078 3.56193C30.4262 3.51183 31.1169 3.99302 31.344 4.66801C31.4748 4.98704 31.4206 5.33508 31.4299 5.66994C31.4285 19.1274 31.4312 32.5849 31.4285 46.0438C28.7438 46.0451 26.0577 46.0425 23.373 46.0451C22.0537 45.9765 20.7331 46.0253 19.4126 46.0108C14.1302 46.0108 8.8479 46.0108 3.56557 46.0108C3.56425 32.3846 3.56689 18.7596 3.56557 5.13338ZM5.34043 5.41945C5.35892 14.9048 5.34307 24.3902 5.34835 33.8769C5.4157 37.3151 5.36552 40.7573 5.38269 44.1968C13.4699 44.1994 21.5585 44.1981 29.6471 44.1981C29.6471 31.2561 29.6471 18.3154 29.6458 5.37331C21.5453 5.44846 13.4422 5.37331 5.34043 5.41945Z" fill="#F96E00"/>
<path d="M11.2461 18.3565C13.4132 16.8431 16.1548 16.2564 18.7682 16.5425C21.3684 16.8141 23.933 17.9966 25.5943 20.0519C26.6508 21.336 27.2754 22.9825 27.2397 24.6502C27.2569 26.4919 26.3299 28.1794 25.2179 29.59C24.9789 31.0573 24.8587 32.5417 24.6725 34.017C23.7864 33.2602 22.9095 32.4943 22.0393 31.7217C19.3321 32.812 16.2102 32.9333 13.4687 31.8931C11.4997 31.1707 9.72087 29.8181 8.67893 27.9803C7.65416 26.2362 7.47456 24.0398 8.1956 22.1494C8.7476 20.5858 9.90047 19.2978 11.2461 18.3565ZM11.9487 20.0967C10.8592 20.9259 9.99555 22.094 9.68918 23.4413C9.31942 24.9495 9.77105 26.5869 10.7285 27.7905C11.8193 29.209 13.4832 30.091 15.1973 30.5207C17.5638 31.0955 20.1429 30.7449 22.2638 29.5452C22.6084 29.8247 22.932 30.1318 23.2965 30.3889C23.3691 29.6717 23.3202 28.8452 23.8538 28.2835C24.6606 27.4319 25.2298 26.3443 25.3936 25.1789C25.593 23.8263 25.1321 22.4341 24.3107 21.3597C23.101 19.7777 21.2218 18.8087 19.2819 18.4633C16.7583 17.99 13.9982 18.5134 11.9487 20.0967Z" fill="#F96E00"/>
<path d="M12.7172 23.6694C13.4264 23.2673 14.1804 24.0794 14.018 24.7834C13.952 25.3779 13.2098 25.6785 12.7053 25.4386C12.0556 25.1011 11.9566 23.9357 12.7172 23.6694Z" fill="#F96E00"/>
<path d="M17.0857 23.6692C17.7724 23.2658 18.5833 24.0647 18.4275 24.7661C18.3139 25.4002 17.4066 25.7864 16.9273 25.2934C16.4188 24.8715 16.4254 23.9382 17.0857 23.6692Z" fill="#F96E00"/>
<path d="M21.5492 23.6376C22.0762 23.4333 22.7536 23.7984 22.821 24.3719C23.0349 25.1141 22.0762 25.8036 21.4344 25.3857C20.7305 25.0508 20.819 23.8854 21.5492 23.6376Z" fill="#F96E00"/>
<path d="M16.8375 50.7199C18.5621 50.211 20.4387 51.8655 20.2485 53.6255C20.1785 54.2148 20.0069 54.8239 19.579 55.2576C18.7853 56.1554 17.3895 56.4691 16.2987 55.9576C15.5354 55.5516 14.9041 54.8173 14.8051 53.9366C14.5634 52.5642 15.4152 51.0073 16.8375 50.7199ZM17.3208 52.4904C16.6275 52.5933 16.3105 53.5438 16.7793 54.0474C17.1372 54.4626 17.8715 54.5207 18.2109 54.05C18.8236 53.4607 18.1343 52.2663 17.3208 52.4904Z" fill="#F96E00"/>
</svg>
