<svg width="32" height="54" viewBox="0 0 32 54" fill="none" xmlns="http://www.w3.org/2000/svg">
<path d="M1.7157 1.10529C2.50775 0.421866 3.53886 0.00723198 4.5905 0C12.2417 0.00241066 19.8918 -1.12255e-09 27.543 0.00120533C29.895 0.0879891 31.9475 2.22504 31.9669 4.56941C31.9644 16.3045 31.9669 28.0396 31.9657 39.7747C32.026 42.6265 31.9838 45.4819 31.9958 48.3349C31.9801 49.0208 32.0622 49.7223 31.8666 50.3912C31.4066 52.2511 29.7646 53.8144 27.8255 54H4.16912C1.98133 53.7915 0.205256 51.8413 0 49.6922V4.6357C0.0651991 3.29055 0.678553 1.97433 1.7157 1.10529ZM1.66258 4.70561C1.65775 17.7015 1.66137 30.6973 1.66016 43.6932C11.2191 43.6956 20.7768 43.6956 30.3357 43.6932C30.3345 30.6949 30.3381 17.6979 30.3333 4.70079C30.3091 3.11096 28.9049 1.6501 27.2931 1.65853C19.765 1.65974 12.2369 1.65733 4.70882 1.65974C3.09213 1.64648 1.68431 3.11216 1.66258 4.70561ZM1.72053 45.3518C1.72898 46.6692 1.64447 47.9854 1.72053 49.3028C1.66982 50.5745 2.59589 51.7376 3.76947 52.1546C4.37558 52.4066 5.04085 52.333 5.67956 52.3427C12.843 52.3403 20.0077 52.3475 27.1711 52.3391C28.6659 52.3668 30.0664 51.188 30.2572 49.703C30.3309 48.2554 30.2995 46.8018 30.3043 45.3518C20.7768 45.3518 11.2493 45.3505 1.72053 45.3518Z" fill="#F96E00"/>
<path d="M3.25999 4.69344C3.26965 3.93891 3.95303 3.26272 4.70886 3.25669C12.1923 3.25548 19.6769 3.25548 27.1615 3.25669C27.8183 3.21089 28.4498 3.65083 28.6574 4.26796C28.777 4.55965 28.7275 4.87786 28.7359 5.18401C28.7347 17.488 28.7371 29.792 28.7347 42.0972C26.2801 42.0984 23.8243 42.096 21.3696 42.0984C20.1635 42.0358 18.9561 42.0804 17.7487 42.0671C12.9191 42.0671 8.08955 42.0671 3.25999 42.0671C3.25878 29.6088 3.2612 17.1517 3.25999 4.69344ZM4.88272 4.955C4.89963 13.6273 4.88514 22.2997 4.88997 30.9732C4.95155 34.1167 4.90566 37.2639 4.92136 40.4086C12.3154 40.411 19.7107 40.4098 27.1059 40.4098C27.1059 28.5771 27.1059 16.7455 27.1047 4.91281C19.6986 4.98152 12.2901 4.91281 4.88272 4.955Z" fill="#F96E00"/>
<path d="M10.2821 16.7832C12.2634 15.3994 14.77 14.8631 17.1594 15.1246C19.5367 15.3729 21.8815 16.4541 23.4004 18.3332C24.3663 19.5072 24.9374 21.0127 24.9048 22.5374C24.9205 24.2213 24.0729 25.7641 23.0563 27.0538C22.8377 28.3953 22.7279 29.7525 22.5576 31.1013C21.7475 30.4094 20.9458 29.7091 20.1501 29.0028C17.6749 29.9996 14.8207 30.1105 12.3141 29.1595C10.5139 28.499 8.88755 27.2623 7.93492 25.5821C6.99799 23.9874 6.83378 21.9793 7.49302 20.2509C7.99771 18.8214 9.05176 17.6438 10.2821 16.7832ZM10.9244 18.3742C9.92832 19.1324 9.13869 20.2003 8.85858 21.4321C8.52051 22.811 8.93343 24.308 9.80879 25.4085C10.8061 26.7054 12.3274 27.5118 13.8946 27.9047C16.0582 28.4303 18.4163 28.1096 20.3553 27.0128C20.6705 27.2683 20.9663 27.5492 21.2995 27.7842C21.3659 27.1285 21.3213 26.3728 21.809 25.8593C22.5468 25.0807 23.0671 24.0863 23.2169 23.0207C23.3992 21.7841 22.9778 20.5113 22.2268 19.5289C21.1208 18.0825 19.4027 17.1966 17.6291 16.8808C15.3217 16.4481 12.7983 16.9266 10.9244 18.3742Z" fill="#F96E00"/>
<path d="M11.6272 21.6407C12.2755 21.2731 12.9649 22.0155 12.8164 22.6592C12.7561 23.2028 12.0775 23.4776 11.6163 23.2582C11.0222 22.9497 10.9317 21.8842 11.6272 21.6407Z" fill="#F96E00"/>
<path d="M15.6213 21.6404C16.2491 21.2716 16.9905 22.002 16.848 22.6432C16.7441 23.223 15.9147 23.5761 15.4764 23.1253C15.0115 22.7396 15.0176 21.8863 15.6213 21.6404Z" fill="#F96E00"/>
<path d="M19.7022 21.6114C20.184 21.4246 20.8034 21.7585 20.8649 22.2828C21.0605 22.9614 20.184 23.5918 19.5972 23.2097C18.9536 22.9036 19.0345 21.838 19.7022 21.6114Z" fill="#F96E00"/>
<path d="M15.3943 46.3725C16.9711 45.9073 18.6868 47.42 18.5129 49.0291C18.4489 49.5679 18.292 50.1247 17.9008 50.5213C17.1752 51.3421 15.8989 51.629 14.9016 51.1613C14.2038 50.7901 13.6266 50.1187 13.5361 49.3135C13.3151 48.0588 14.0939 46.6353 15.3943 46.3725ZM15.8362 47.9913C15.2023 48.0853 14.9125 48.9544 15.3411 49.4148C15.6683 49.7945 16.3396 49.8475 16.6499 49.4172C17.2102 48.8784 16.5799 47.7864 15.8362 47.9913Z" fill="#F96E00"/>
</svg>
