<svg width="48" height="49" viewBox="0 0 48 49" fill="none" xmlns="http://www.w3.org/2000/svg">
<path d="M10.7868 0.797907C12.7067 -0.195235 15.0079 -0.186618 17.047 0.414438C19.645 1.15983 21.9116 2.97593 23.1554 5.36507C24.7481 2.29516 28.0352 0.209777 31.4979 0.0180427C33.2726 -0.0896734 35.1751 0.298104 36.5294 1.50452C37.5868 2.42227 38.1437 3.82258 38.1459 5.20565C38.1697 7.06698 37.3788 8.85292 36.2607 10.3135C39.5825 10.2963 42.9044 10.2963 46.2262 10.3114C46.8676 10.2683 47.418 10.8672 47.4071 11.4898C47.3768 15.2836 47.4115 19.0816 47.3898 22.8754C47.4331 23.5002 46.9023 24.1098 46.2587 24.084C45.0994 24.1141 43.938 24.084 42.7765 24.0926C42.7635 31.7318 42.7808 39.3732 42.7678 47.0146C42.8242 47.7169 42.1633 48.3007 41.472 48.221C29.2617 48.221 17.0535 48.2275 4.84308 48.2167C4.15618 48.2921 3.56895 47.676 3.60796 47.006C3.59712 39.3689 3.60362 31.7318 3.60579 24.0969C2.72604 24.0775 1.84195 24.1335 0.962194 24.0667C0.38147 24.0107 -0.0324046 23.4248 0.00659925 22.8668C-0.00423516 19.0644 9.86031e-05 15.2599 0.00659925 11.4575C-0.0215702 10.8457 0.550487 10.2662 1.17021 10.3114C4.12367 10.2942 7.07713 10.3049 10.0284 10.3071C8.79331 8.63533 7.92005 6.55426 8.22341 4.44517C8.42493 2.9113 9.4022 1.50668 10.7868 0.797907ZM11.5344 3.0104C10.4965 3.82688 10.1021 5.27674 10.464 6.52625C10.8648 8.00411 11.9288 9.21269 13.1227 10.1347C13.3503 10.3437 13.6775 10.2877 13.9592 10.3071C16.4576 10.2942 18.9581 10.3179 21.4566 10.2898C21.9918 9.19114 22.0113 7.88563 21.4544 6.79123C20.4338 4.74032 18.4598 3.25599 16.3189 2.50198C14.7652 1.98063 12.8605 1.92031 11.5344 3.0104ZM29.1208 2.84451C27.4025 3.66962 25.8228 4.93205 24.9322 6.63827C24.3363 7.76498 24.241 9.18253 24.9062 10.3049C27.5823 10.2812 30.2628 10.3459 32.9367 10.2748C34.4015 9.32256 35.6496 7.81669 35.9378 6.06092C36.1849 4.66492 35.4026 3.20428 34.1285 2.58815C32.551 1.80828 30.6636 2.13574 29.1208 2.84451ZM2.32083 12.6122C2.30783 15.6692 2.3295 18.7262 2.31216 21.7832C7.32199 21.8112 12.3318 21.7832 17.3438 21.7961C17.3417 18.7348 17.3395 15.6735 17.346 12.6122C12.3383 12.6036 7.32849 12.6014 2.32083 12.6122ZM28.8998 12.6187C28.9128 15.6778 28.8955 18.7391 28.9106 21.7982C34.2997 21.7918 39.6887 21.7896 45.0777 21.8004C45.0799 18.7369 45.0712 15.6735 45.0821 12.6101C39.6865 12.6079 34.2932 12.5928 28.8998 12.6187ZM19.6646 12.9698C19.6516 15.9062 19.6667 18.8447 19.6559 21.7832C21.9679 21.7961 24.2822 21.8112 26.5942 21.7745C26.5921 18.8468 26.5769 15.9191 26.6029 12.9914C24.2908 12.9289 21.9766 12.9634 19.6646 12.9698ZM5.91785 24.0947C5.91569 31.3699 5.91352 38.645 5.91785 45.9202C9.72723 45.918 13.5366 45.9374 17.3438 45.9094C17.333 38.6364 17.3547 31.3634 17.333 24.0883C13.5279 24.0991 9.7229 24.0926 5.91785 24.0947ZM19.6646 24.0926C19.6516 31.0467 19.6645 38.003 19.658 44.9572C21.9701 44.9637 24.28 44.955 26.5899 44.9637C26.5942 38.0074 26.5834 31.0511 26.5942 24.0926C24.2843 24.0926 21.9744 24.0969 19.6646 24.0926ZM28.9063 24.0883C28.8998 31.3656 28.9128 38.6429 28.8976 45.9202C32.7547 45.9202 36.6117 45.9288 40.4666 45.918C40.4471 38.6429 40.4645 31.3677 40.458 24.0926C36.6074 24.0926 32.7569 24.0991 28.9063 24.0883Z" fill="#F86D00"/>
</svg>
