<svg width="62" height="56" viewBox="0 0 62 56" fill="none" xmlns="http://www.w3.org/2000/svg">
<path d="M6.59783 0.086101C8.05827 -0.134434 9.58289 0.0727722 10.9271 0.688331C12.9143 1.58017 14.4886 3.34687 15.1328 5.42983C15.6354 7.00872 15.6075 8.7524 15.0505 10.3131C14.4595 12.0023 13.2631 13.4697 11.7275 14.3882C10.4282 15.1782 8.889 15.5684 7.37044 15.4884C5.58183 15.4084 3.83439 14.6729 2.52169 13.4563C1.17993 12.2361 0.287435 10.5288 0.0634045 8.72695C-0.180002 6.87543 0.283802 4.94029 1.34462 3.40261C2.53622 1.63348 4.48468 0.390245 6.59783 0.086101ZM6.72741 2.02972C4.45441 2.4102 2.52653 4.27505 2.06757 6.53372C1.72244 8.11261 2.07847 9.82963 3.03272 11.1335C4.02693 12.5342 5.6678 13.4515 7.38255 13.5484C9.22565 13.6793 11.0966 12.8493 12.2495 11.4073C13.3236 10.1035 13.7813 8.31133 13.4459 6.65247C13.1843 5.23475 12.3548 3.93819 11.1971 3.08392C9.93892 2.13271 8.27746 1.74617 6.72741 2.02972Z" fill="#F86D00"/>
<path d="M42.4452 0.0858122C43.9335 -0.13957 45.4884 0.0809653 46.8508 0.724394C48.4335 1.46113 49.7559 2.74798 50.5285 4.31596C51.3907 6.03178 51.5675 8.07354 51.0262 9.91537C50.5237 11.6324 49.4096 13.164 47.9237 14.1625C46.2913 15.2858 44.2133 15.7317 42.2624 15.3815C40.4495 15.0737 38.7699 14.0777 37.6074 12.6551C36.6095 11.4446 35.9883 9.92385 35.8708 8.35709C35.7267 6.61825 36.2002 4.8358 37.1908 3.3999C38.3824 1.63077 40.3333 0.391168 42.4452 0.0858122ZM42.5591 2.03064C40.2546 2.42203 38.3146 4.33778 37.8907 6.63643C37.4899 8.58005 38.1947 10.6885 39.6612 12.0189C40.9 13.1737 42.6584 13.742 44.338 13.5106C45.8844 13.3155 47.3291 12.4588 48.2519 11.2034C49.1867 9.95899 49.5864 8.32316 49.3151 6.78911C49.0535 5.13994 48.0218 3.64345 46.5965 2.78191C45.4036 2.0476 43.9372 1.77497 42.5591 2.03064Z" fill="#F86D00"/>
<path d="M7.43473 3.91517C7.63454 3.71887 7.97483 3.73099 8.16737 3.93214C8.38898 4.13207 8.30664 4.46409 8.33691 4.72825C8.89033 4.83124 9.48129 5.08328 9.75254 5.60917C9.96689 6.0357 9.38441 6.5519 8.99205 6.26351C8.76196 6.04661 8.60696 5.75822 8.33449 5.58373C8.31996 6.22352 8.32844 6.86332 8.32722 7.50311C8.88791 7.657 9.62539 7.81695 9.82399 8.44826C10.0977 9.04201 9.98505 9.77995 9.54062 10.2586C9.23061 10.65 8.7547 10.839 8.28605 10.9602C8.2691 11.251 8.34539 11.6278 8.0596 11.8157C7.81498 12.0192 7.39598 11.9102 7.27125 11.6194C7.17801 11.4109 7.22281 11.1747 7.20828 10.9529C6.65123 10.8111 6.05907 10.5942 5.78054 10.0477C5.45963 9.62364 6.09176 9.01293 6.51197 9.33767C6.75174 9.58486 6.8898 9.92657 7.20223 10.1047C7.22403 9.4334 7.20828 8.75967 7.2107 8.08838C6.69967 7.89934 6.16442 7.71153 5.76359 7.32498C5.49475 6.68761 5.57104 5.86364 6.07481 5.35713C6.36908 4.99725 6.82561 4.85911 7.25309 4.73309C7.27731 4.45924 7.20102 4.11874 7.43473 3.91517ZM6.63428 6.17263C6.55193 6.61612 6.89464 6.9542 7.25067 7.14444C7.26641 6.56159 7.26641 5.97996 7.25188 5.39833C6.9673 5.57525 6.63065 5.79214 6.63428 6.17263ZM8.28605 8.30285C8.28 8.88691 8.27152 9.47217 8.29089 10.0562C8.68446 9.85871 9.00537 9.43097 8.88791 8.97294C8.83341 8.64577 8.53915 8.46765 8.28605 8.30285Z" fill="#F86D00"/>
<path d="M43.3401 3.86869C43.6065 3.65785 44.0401 3.81295 44.1394 4.12921C44.1817 4.32551 44.1721 4.52787 44.1817 4.7278C44.7352 4.83322 45.3285 5.08163 45.5974 5.60994C45.8117 6.03405 45.2329 6.54661 44.8429 6.26913C44.6153 6.04617 44.4469 5.76505 44.1793 5.58207C44.1636 6.22187 44.1745 6.86166 44.1708 7.50146C44.7606 7.65656 45.5344 7.8468 45.6991 8.53021C45.9583 9.1385 45.7802 9.86675 45.3189 10.326C45.0137 10.6762 44.5668 10.8398 44.1321 10.9585C44.1103 11.2481 44.1842 11.6153 43.9105 11.8104C43.6368 12.0442 43.1597 11.877 43.081 11.5292C43.0458 11.3402 43.0567 11.1451 43.0507 10.9549C42.5033 10.8058 41.9124 10.6011 41.6326 10.0618C41.2923 9.63531 41.9366 9.004 42.3629 9.33844C42.5929 9.59169 42.7358 9.92613 43.0495 10.1018C43.0628 9.42932 43.058 8.75681 43.0531 8.0843C42.5445 7.91708 42.0613 7.68564 41.6205 7.38149C41.3783 6.74655 41.3783 5.95044 41.8591 5.42455C42.157 5.02831 42.639 4.85988 43.0979 4.73386C43.1173 4.43941 43.0434 4.05166 43.3401 3.86869ZM42.4779 6.16976C42.404 6.61205 42.7346 6.95496 43.0955 7.14278C43.1137 6.56115 43.104 5.97831 43.0979 5.39547C42.8109 5.57117 42.4743 5.79049 42.4779 6.16976ZM44.1309 8.30241C44.1224 8.88646 44.1176 9.47173 44.1382 10.0558C44.493 9.86797 44.7957 9.51414 44.7485 9.0864C44.7509 8.70592 44.4179 8.48053 44.1309 8.30241Z" fill="#F86D00"/>
<path d="M24.1534 8.80917C27.0537 8.46746 30.0751 9.11695 32.5443 10.6886C35.8636 12.7243 38.1911 16.3098 38.6464 20.1861C39.0048 23.0834 38.3848 26.1115 36.8336 28.5931C35.4845 30.8433 33.4234 32.6451 31.0427 33.7333C28.4318 34.9208 25.4262 35.2031 22.6385 34.5342C20.1863 33.9611 17.9278 32.6318 16.1949 30.8093C14.3021 28.8245 13.0451 26.2351 12.7036 23.5099C12.3125 20.5521 12.9543 17.4537 14.554 14.9296C16.609 11.5792 20.2383 9.23085 24.1534 8.80917ZM24.1546 10.7613C21.964 11.0678 19.8702 12.0336 18.2293 13.5216C15.9636 15.5391 14.5903 18.5188 14.5322 21.5542C14.4801 23.7474 15.1002 25.9503 16.2845 27.7958C17.7764 30.149 20.1826 31.9072 22.8855 32.5894C25.4637 33.2849 28.2853 32.9626 30.6636 31.7606C33.197 30.4943 35.2157 28.2235 36.153 25.5468C36.9014 23.4687 37.0213 21.1616 36.4473 19.0253C35.7413 16.2044 33.8558 13.7094 31.3563 12.2311C29.2153 10.9418 26.6299 10.4183 24.1546 10.7613Z" fill="#F86D00"/>
<path d="M24.9236 14.3953C25.2651 13.9664 25.9796 13.93 26.3538 14.3359C26.7619 14.7249 26.613 15.3368 26.6372 15.8397C27.6435 16.0227 28.6256 16.5631 29.1669 17.4525C29.5702 18.1081 28.9816 19.0375 28.2163 18.9441C27.3795 18.8969 27.3105 17.8512 26.596 17.5725C26.5754 18.7733 26.596 19.9741 26.5863 21.1749C27.583 21.3894 28.6111 21.7566 29.2662 22.5818C29.8245 23.5245 29.9153 24.7653 29.3946 25.7456C28.8775 26.841 27.7622 27.5365 26.5875 27.7183C26.5875 28.0539 26.6033 28.392 26.5742 28.7277C26.5258 29.2172 26.0317 29.611 25.5425 29.5553C25.1041 29.5323 24.7045 29.1615 24.6633 28.7216C24.6354 28.3896 24.65 28.0552 24.6512 27.7219C23.5625 27.5268 22.4097 27.0143 21.8756 25.9867C21.5741 25.4184 22.0088 24.6696 22.6288 24.5835C23.106 24.4781 23.6158 24.7532 23.7829 25.2124C23.9319 25.6462 24.3012 25.9298 24.6936 26.1321C24.7045 24.8828 24.6948 23.6335 24.6996 22.3843C23.709 22.0801 22.6228 21.7626 21.9798 20.8853C21.3852 19.8178 21.3876 18.3989 22.0791 17.3737C22.6712 16.5049 23.6933 16.036 24.6996 15.8409C24.7299 15.3598 24.5822 14.7976 24.9236 14.3953ZM23.7006 18.2595C23.4862 18.7272 23.4765 19.2895 23.6751 19.7633C23.8616 20.191 24.323 20.374 24.6984 20.5957C24.6923 19.5403 24.7069 18.4849 24.6948 17.4307C24.3036 17.6185 23.8907 17.8487 23.7006 18.2595ZM26.6917 26.0921C27.4667 25.7674 28.0177 24.941 27.8179 24.0867C27.7501 23.4845 27.187 23.1719 26.6905 22.9489C26.6844 23.9971 26.6844 25.0452 26.6917 26.0921Z" fill="#F86D00"/>
<path d="M50.8458 31.2235C51.4622 30.9739 52.1403 31.0126 52.7918 31.0138C54.8105 31.0126 56.8304 31.0114 58.8503 31.0138C60.2781 30.9799 61.6695 32.0281 61.9892 33.4264C62.011 38.5205 61.988 43.6146 62.0001 48.7087C61.9977 48.9462 62.0146 49.1983 61.9044 49.4176C61.4358 50.5785 60.2284 51.3952 58.9738 51.3709C56.6718 51.3733 54.3697 51.3733 52.0676 51.3709C50.9305 51.3794 49.831 50.7275 49.2957 49.7242C44.5632 51.2001 39.8295 52.6711 35.0934 54.1349C32.4837 54.9274 29.7409 55.3575 27.0101 55.1443C25.5109 55.0255 24.0009 54.765 22.6058 54.1858C15.9357 51.1601 9.2669 48.1308 2.59684 45.1026C1.754 44.7294 0.975346 44.1478 0.517597 43.3323C-0.462083 41.7062 0.218486 39.3918 1.81576 38.4248C2.80876 37.8092 4.02337 37.6263 5.1738 37.7329C6.17891 37.8214 7.14285 38.1328 8.108 38.4066C11.1354 39.2718 14.1629 40.1345 17.1915 40.9985C17.4059 39.6717 18.1203 38.4127 19.2417 37.6505C19.9186 37.184 20.73 36.9174 21.5523 36.8871C24.2443 36.7987 26.9399 36.818 29.6331 36.8289C31.745 34.792 34.4927 33.5149 37.3422 32.9017C40.5767 32.2001 43.9287 32.1383 47.2128 32.4667C47.8656 32.5334 48.5134 32.6303 49.1577 32.7539C49.5149 32.0632 50.1107 31.4925 50.8458 31.2235ZM51.4876 32.8545C51.0177 33.0423 50.7259 33.5488 50.7598 34.0492C50.7634 38.8537 50.7598 43.6583 50.7622 48.4628C50.7404 49.1001 51.3023 49.6842 51.9417 49.6709C54.2874 49.6733 56.6318 49.6781 58.9775 49.6684C59.6132 49.666 60.1848 49.0977 60.1558 48.4543C60.1533 43.6134 60.1606 38.7726 60.1521 33.9317C60.1521 33.2616 59.5006 32.7188 58.8479 32.76C56.6706 32.76 54.4932 32.7612 52.3171 32.7587C52.0386 32.7612 51.7479 32.7418 51.4876 32.8545ZM38.8728 34.5182C35.7425 35.061 32.6387 36.3842 30.4663 38.7677C27.5781 38.758 24.6887 38.7265 21.7993 38.7277C21.1333 38.8853 20.4854 39.1761 19.9247 39.5735C19.3604 39.9698 19.1582 40.6798 19.0734 41.3293C19.0237 41.871 19.0407 42.4538 19.3144 42.9397C19.5384 43.3444 19.984 43.6328 20.4539 43.6158C24.3327 43.6122 28.2102 43.6171 32.089 43.6134C32.6278 43.5843 33.0916 44.0666 33.1292 44.5889C33.174 45.099 32.6969 45.5449 32.1943 45.5049C28.1993 45.5074 24.2043 45.5037 20.2093 45.5074C19.8605 45.5134 19.5323 45.3668 19.2308 45.2069C18.325 44.704 17.6045 43.8739 17.2484 42.9009C13.7596 41.894 10.2587 40.9294 6.76624 39.9346C5.79624 39.6486 4.7766 39.4584 3.76422 39.5856C3.18901 39.6644 2.58716 39.908 2.25898 40.412C1.8303 41.1136 1.77338 42.0854 2.26867 42.7688C2.52782 43.1396 2.92865 43.3747 3.33312 43.5565C9.77067 46.4852 16.2106 49.4091 22.6458 52.3415C23.7805 52.8977 25.0326 53.1691 26.2799 53.3279C28.9186 53.6211 31.6239 53.3775 34.1573 52.5717C39.0787 51.0413 43.9989 49.5097 48.9191 47.9769C48.9009 43.5019 48.884 39.0282 48.8707 34.5533C45.5708 34.0092 42.174 33.9487 38.8728 34.5182Z" fill="#F86D00"/>
</svg>
