<svg width="51" height="47" viewBox="0 0 51 47" fill="none" xmlns="http://www.w3.org/2000/svg">
<path d="M29.2997 0H29.6976C29.9164 0.0895238 30.1377 0.225126 30.2181 0.463417C30.5568 1.36129 30.8098 2.29076 31.1274 3.19784C32.6427 2.72258 34.1028 2.08143 35.6353 1.66146C35.9265 1.55613 36.2678 1.63118 36.4602 1.88132C36.762 2.27364 36.8568 2.77524 37.0347 3.22681C38.7899 3.22549 40.5452 3.22417 42.299 3.22549C44.3336 3.26235 46.131 5.06863 46.214 7.08818C46.2825 7.96235 46.1705 8.83916 46.243 9.71465C47.8796 10.2873 49.3344 11.7434 49.4029 13.5484C49.4319 16.0392 49.4055 18.5327 49.4148 21.0236C49.8707 21.0434 50.3886 20.9868 50.7707 21.2869C51.0184 21.4857 50.9934 21.8293 51 22.1137C50.9855 25.8447 51.0105 29.5758 50.9881 33.3068C50.9644 34.1178 50.0012 34.0915 49.4148 34.0717C49.4135 37.022 49.4161 39.9711 49.4148 42.9214C49.4293 44.9186 47.794 46.7551 45.8147 47H3.62375C1.76312 46.8012 0.208201 45.1806 0 43.3387V6.90913C0.204248 4.94882 1.96473 3.24129 3.95977 3.22549C9.58119 3.22549 15.2026 3.22417 20.824 3.22681C21.2075 3.22944 21.5831 3.13465 21.9375 2.99115C24.3832 1.97611 26.8382 0.979496 29.2997 0ZM21.3709 5.01333C17.5165 6.54577 13.6965 8.1651 9.83288 9.6712C10.244 9.68174 10.6551 9.7107 11.0676 9.7107C17.8881 9.70807 24.71 9.7107 31.5306 9.70938C30.6806 7.10398 29.8294 4.49857 28.9597 1.89975C26.4402 2.96219 23.8957 3.96406 21.3709 5.01333ZM31.6848 4.74871C32.1209 6.42728 32.7508 8.04793 33.2515 9.70675C34.7788 9.71597 36.306 9.70149 37.832 9.71465C37.0334 7.63059 36.1848 5.56627 35.3968 3.47826C34.1581 3.89824 32.9274 4.34191 31.6848 4.74871ZM2.40485 5.41751C1.39416 6.32196 1.33618 8.07162 2.28099 9.04454C2.82257 9.58431 3.62902 9.73308 4.36827 9.71728C4.82552 9.70148 5.30253 9.71992 5.73738 9.55667C9.57988 8.05583 13.3591 6.397 17.2214 4.94751C16.4044 4.8593 15.5821 4.93698 14.7651 4.8751C11.2929 4.86588 7.82071 4.8751 4.34718 4.86983C3.67251 4.87247 2.93063 4.94882 2.40485 5.41751ZM37.687 4.87115C38.3445 6.47599 38.952 8.1019 39.6082 9.70938C41.2765 9.7028 42.9447 9.72387 44.613 9.69754C44.5787 8.75095 44.6538 7.80042 44.5563 6.85647C44.4693 5.78877 43.4863 4.8988 42.419 4.89353C40.8416 4.84219 39.2643 4.88563 37.687 4.87115ZM1.61158 10.5375C1.61685 21.2935 1.61158 32.0482 1.61422 42.8042C1.62344 43.4243 1.73149 44.0878 2.15844 44.5671C2.59197 45.0884 3.27587 45.3451 3.94396 45.3543C17.8275 45.3543 31.7111 45.3543 45.596 45.3543C46.6844 45.332 47.6938 44.4051 47.7597 43.3098C47.7821 41.2468 47.819 39.1838 47.7979 37.1208C47.7347 36.0913 47.8361 35.0617 47.7992 34.0322C45.7462 34.0717 43.6906 34.0875 41.6375 34.0322C38.1324 34.2297 34.958 30.9858 35.045 27.5207C34.9975 24.2531 37.8267 21.2 41.1052 21.0644C43.3269 21.0789 45.5459 21.0486 47.7663 21.0315C47.765 18.6117 47.8375 16.1906 47.7887 13.7709C47.7729 13.1087 47.5528 12.4267 47.0653 11.9606C46.5645 11.5012 45.8648 11.3485 45.2007 11.355C31.4515 11.3564 17.701 11.3524 3.95055 11.3564C3.10061 11.3695 2.30339 11.0022 1.61158 10.5375ZM37.3628 24.9613C36.2981 26.7505 36.4589 29.2137 37.8372 30.7949C38.7003 31.8218 40.0471 32.3905 41.3806 32.3879C44.0477 32.3839 46.7147 32.3879 49.3818 32.3852C49.3792 29.1597 49.3871 25.9343 49.3779 22.7088C46.6647 22.7127 43.9528 22.7075 41.2396 22.7101C39.6807 22.7443 38.1403 23.5987 37.3628 24.9613Z" fill="#F96E00"/>
</svg>
