<svg width="54" height="58" viewBox="0 0 54 58" fill="none" xmlns="http://www.w3.org/2000/svg">
<path d="M10.5315 1.01999C10.5148 0.475662 11.0038 -0.012047 11.5481 0.00339499C21.8505 -0.000465499 32.1542 -0.00175233 42.4565 0.00339499C43.0549 -0.0159075 43.5426 0.568314 43.4718 1.15253C43.4718 10.6236 43.4718 20.0934 43.4731 29.5632C46.6902 29.5696 49.9073 29.5503 53.1244 29.5735C53.9363 29.6468 54.3095 30.7921 53.6918 31.3274C45.1769 39.881 36.6632 48.4346 28.1483 56.9868C27.8613 57.2686 27.5795 57.6444 27.1368 57.6483C26.7147 57.7023 26.3647 57.4205 26.1022 57.1258C17.5087 48.5233 8.90499 39.9312 0.311535 31.3287C-0.355043 30.7574 0.127518 29.5259 1.009 29.567C4.18103 29.5606 7.35436 29.5632 10.5277 29.5645C10.5328 20.0496 10.5238 10.5348 10.5315 1.01999ZM12.5879 2.05975C12.5892 11.5424 12.5879 21.0238 12.5879 30.5064C12.6471 31.0842 12.1452 31.6298 11.5636 31.6131C8.88183 31.6182 6.20136 31.6131 3.5196 31.6157C11.3615 39.4679 19.2138 47.3099 27.0532 55.166C34.8681 47.3189 42.6766 39.4641 50.4915 31.6157C47.811 31.6131 45.1293 31.6182 42.4488 31.6131C41.8646 31.6363 41.3524 31.0855 41.4142 30.5039C41.4116 21.0225 41.4129 11.5411 41.4129 2.05975C31.8041 2.05975 22.1954 2.05975 12.5879 2.05975Z" fill="#F86D00"/>
<path d="M21.4014 12.4293C23.5066 11.9635 25.774 13.4498 26.2103 15.5537C26.7096 17.4968 25.5205 19.651 23.6443 20.324C21.9805 20.9919 19.9395 20.3742 18.8972 18.9239C17.7506 17.4518 17.8317 15.2024 19.0658 13.8075C19.6616 13.1036 20.4967 12.6107 21.4014 12.4293ZM21.5326 14.5191C20.5238 14.8254 19.9112 15.9912 20.2008 17.0001C20.444 18.0476 21.6021 18.7438 22.6432 18.4838C23.764 18.2754 24.5116 17.0207 24.1861 15.932C23.921 14.8112 22.6136 14.1228 21.5326 14.5191Z" fill="#F86D00"/>
<path d="M31.005 12.3727C31.7849 12.1217 32.5827 13.0238 32.216 13.765C29.3991 20.5762 26.5719 27.3822 23.7563 34.1947C23.6444 34.4843 23.4809 34.7815 23.1824 34.9102C22.6587 35.1894 21.9419 34.9012 21.7592 34.3363C21.5829 33.8949 21.8402 33.4587 22.0011 33.0572C24.7768 26.3695 27.5435 19.678 30.3204 12.9891C30.4324 12.6879 30.6962 12.4576 31.005 12.3727Z" fill="#F86D00"/>
<path d="M30.9355 26.8581C32.9674 26.3666 35.1949 27.71 35.7495 29.7149C36.393 31.6966 35.2322 34.0065 33.2891 34.7207C31.5673 35.4348 29.4312 34.7567 28.4094 33.2073C27.3439 31.7223 27.4726 29.5347 28.699 28.181C29.2793 27.5183 30.072 27.0409 30.9355 26.8581ZM31.3923 28.8566C30.5765 29.0084 29.8996 29.702 29.7709 30.523C29.538 31.6631 30.4452 32.8728 31.6149 32.932C32.8246 33.0902 33.9737 31.9771 33.8579 30.7637C33.8373 29.545 32.5736 28.5825 31.3923 28.8566Z" fill="#F86D00"/>
<path d="M10.462 33.8047C10.8828 33.5576 11.4452 33.6709 11.7604 34.0351C13.1927 35.4737 14.6301 36.9085 16.0662 38.3433C16.4882 38.7384 16.4586 39.4873 16.0134 39.8515C15.6248 40.2015 14.9724 40.1771 14.6108 39.7988C13.1502 38.3433 11.6909 36.8854 10.2355 35.4235C9.75812 34.9783 9.88551 34.1045 10.462 33.8047Z" fill="#F86D00"/>
<path d="M17.9257 41.003C18.3156 40.8654 18.7608 41.0069 19.0323 41.3093C19.5329 41.8292 20.0734 42.313 20.5495 42.8561C21.0192 43.457 20.5495 44.444 19.7877 44.462C19.273 44.5303 18.9127 44.1185 18.5935 43.7865C18.1985 43.3657 17.7532 42.9925 17.389 42.5447C17.0069 42.0132 17.3015 41.1871 17.9257 41.003Z" fill="#F86D00"/>
</svg>
