<svg width="32" height="32" viewBox="0 0 32 32" fill="none" xmlns="http://www.w3.org/2000/svg">
<path fill-rule="evenodd" clip-rule="evenodd" d="M9 0C4.02944 0 0 4.02944 0 9V23C0 27.9706 4.02944 32 9 32H23C27.9706 32 32 27.9706 32 23V9C32 4.02944 27.9706 0 23 0H9ZM12.1756 7.03879C11.1154 7.165 10.1077 7.66784 9.36377 8.43174C8.62114 9.185 8.14088 10.1913 8.02929 11.2435C7.91171 12.2871 8.15018 13.3691 8.70815 14.2606C8.52349 15.5067 8.61848 16.7974 9.02102 17.993C9.62018 19.8164 10.9181 21.3933 12.5834 22.3452C14.1311 23.242 15.9844 23.5628 17.7493 23.2978C18.9769 24.069 20.5651 24.2098 21.9175 23.6963C23.0288 23.2818 23.9688 22.4362 24.4995 21.3761C24.9877 20.4136 25.1299 19.2823 24.8987 18.2295C24.7924 17.6934 24.556 17.1959 24.3049 16.7177C24.5041 15.3719 24.3693 13.9736 23.8811 12.7016C23.2374 10.9944 21.978 9.52908 20.3878 8.63433C18.854 7.75951 17.02 7.43137 15.2776 7.71035C14.357 7.14773 13.247 6.89731 12.1756 7.03879ZM13.0497 11.581C13.6741 10.8709 14.6267 10.5607 15.5394 10.4431C16.7191 10.3149 17.9885 10.372 19.038 10.9851C19.6783 11.3664 20.2602 11.9961 20.2954 12.7773C20.3353 13.3705 19.7394 13.8899 19.1549 13.7763C18.7338 13.7551 18.4953 13.3638 18.3073 13.0377C18.0482 12.5508 17.6643 12.0506 17.0904 11.9437C16.4906 11.8314 15.8423 11.8254 15.271 12.0645C14.9701 12.2027 14.6725 12.4193 14.5609 12.7441C14.4633 13.0344 14.5509 13.3725 14.7808 13.5757C15.1288 13.8952 15.5965 14.0361 16.0455 14.1477C16.3138 14.2175 16.5848 14.2809 16.8562 14.3444C17.6989 14.5415 18.5447 14.7393 19.319 15.1347C19.8902 15.4197 20.3911 15.8913 20.605 16.5038C20.8554 17.2398 20.8003 18.0814 20.4416 18.7729C19.9932 19.661 19.0692 20.1997 18.1313 20.4355C17.1249 20.6819 16.0608 20.6826 15.0458 20.4827C14.0973 20.292 13.1919 19.7653 12.6704 18.9343C12.3934 18.5012 12.1789 17.9724 12.2905 17.4523C12.4639 16.8239 13.336 16.5742 13.8322 16.98C14.0705 17.1716 14.1926 17.4419 14.315 17.713C14.3942 17.8886 14.4736 18.0645 14.5848 18.2195C14.8871 18.721 15.4523 19.022 16.0282 19.0685C16.7762 19.1422 17.6145 19.0492 18.1884 18.5178C18.5425 18.2096 18.6627 17.6782 18.484 17.2451C18.2787 16.7841 17.7766 16.5562 17.3189 16.4201C16.9579 16.3167 16.5901 16.2326 16.2221 16.1484C15.4215 15.9652 14.6201 15.7818 13.886 15.4004C13.3234 15.1015 12.8093 14.6405 12.5987 14.0241C12.321 13.2051 12.4645 12.2333 13.0497 11.581Z" fill="white" fill-opacity="0.5"/>
</svg>
