<svg width="55" height="55" viewBox="0 0 55 55" fill="none" xmlns="http://www.w3.org/2000/svg">
    <path d="M4.05397 0.185945C4.73665 0.0091374 5.44387 0.00177026 6.14374 0.00422592C10.9003 0.0238712 15.6594 -0.0154191 20.416 0.0238714C23.0976 0.0901741 25.4624 2.45497 25.5311 5.13654C25.5729 9.89315 25.5311 14.6522 25.5532 19.4088C25.5704 20.3665 25.5189 21.3512 25.1235 22.2377C24.3254 24.2022 22.2798 25.5602 20.1606 25.543C15.1609 25.5455 10.1587 25.5627 5.15902 25.5332C2.27608 25.4743 -0.172209 22.7829 0.00950932 19.9073C0.011965 15.0721 0.00459806 10.2394 0.011965 5.40421C-0.0175028 3.01486 1.72601 0.743378 4.05397 0.185945ZM4.97239 2.00313C3.31728 2.17994 1.94457 3.72945 1.97649 5.39684C1.97158 10.3155 1.97158 15.2342 1.97894 20.1504C1.93474 21.9676 3.56775 23.6129 5.38248 23.5785C10.311 23.5834 15.237 23.5883 20.1631 23.5761C21.9852 23.6252 23.6354 21.9676 23.5813 20.1455C23.5863 15.2317 23.5838 10.3155 23.5813 5.3993C23.6182 3.57475 21.9778 1.927 20.1483 1.97857C15.0897 1.98594 10.0286 1.93683 4.97239 2.00313Z" fill="#F86D00"/>
    <path d="M33.2149 0.0551654C38.3571 -0.0528834 43.5066 0.0355203 48.6512 0.0109637C51.431 -0.0455163 53.9628 2.36594 54.0193 5.15065C54.0536 10.1553 54.0315 15.1599 54.0291 20.1621C54.0536 22.3108 52.6465 24.3686 50.6501 25.152C49.3928 25.6848 48.0004 25.5228 46.6695 25.5473C42.4065 25.5424 38.1434 25.5547 33.8804 25.5424C31.7268 25.567 29.6616 24.1476 28.8832 22.1462C28.5148 21.2843 28.4804 20.3315 28.4903 19.4106C28.505 14.7375 28.4829 10.0644 28.5001 5.39376C28.451 2.76375 30.6021 0.330199 33.2149 0.0551654ZM33.2248 2.03933C31.6752 2.33401 30.4278 3.80741 30.4646 5.39867C30.4499 10.0669 30.4695 14.7351 30.4548 19.4033C30.4597 20.0688 30.4302 20.7662 30.6954 21.3924C31.2013 22.6693 32.5028 23.6049 33.8902 23.5779C38.804 23.5853 43.7202 23.5877 48.634 23.5754C50.4586 23.6245 52.1088 21.9793 52.0646 20.1547C52.0719 15.2336 52.0744 10.3124 52.0621 5.3913C52.1063 3.56921 50.4536 1.93374 48.6365 1.97549C43.8897 1.96321 39.1404 1.98531 34.3912 1.96566C34.0032 1.97058 33.6103 1.96567 33.2248 2.03933Z" fill="#F86D00"/>
    <path d="M14.2719 6.63875C15.7183 5.81611 17.5674 6.08132 18.8738 7.05621C19.5761 6.85485 20.2858 6.14762 21.0471 6.49387C21.5308 6.70506 21.5382 7.26986 21.5848 7.71678C21.7641 8.06549 22.103 8.41419 21.9679 8.83902C21.6634 9.62728 20.9537 10.1381 20.4454 10.779C20.3079 13.2911 19.4018 15.8008 17.6484 17.6376C14.4708 21.1394 8.67301 21.7238 4.82254 19.0128C4.17179 18.529 4.57943 17.3037 5.40453 17.3454C6.19034 17.3503 6.9786 17.3503 7.75214 17.2005C6.9786 16.4638 6.27138 15.5651 6.20262 14.4526C5.44137 13.436 4.77097 12.0436 5.38243 10.7937C5.03373 9.55361 5.06811 8.12933 5.83918 7.04885C6.23209 6.57736 7.00562 6.64121 7.35432 7.12988C8.55022 8.55662 10.2201 9.53151 12.0323 9.93424C12.2607 8.57872 13.0121 7.26986 14.2719 6.63875ZM15.598 8.20792C14.488 8.50751 13.8471 9.73042 14.0705 10.8306C14.213 11.3757 13.8299 11.9405 13.2749 12.0093C11.0182 11.9945 8.87191 11.0565 7.09648 9.70587C7.31994 10.445 7.90193 10.9484 8.40043 11.4985C8.84245 12.1492 8.21625 12.8319 7.60725 13.0406C8.09347 13.5121 8.74422 13.7061 9.33849 13.991C9.92294 14.5067 9.5595 15.3023 9.08064 15.7394C9.82716 16.0169 11.1262 15.8671 11.1876 16.9525C11.1336 17.9372 9.96714 18.2245 9.28201 18.6985C11.524 18.9465 13.9134 18.3891 15.6225 16.8616C17.6091 15.1402 18.5521 12.4636 18.4784 9.87531C18.1641 8.66712 16.8184 7.81501 15.598 8.20792Z" fill="#F86D00"/>
    <path d="M38.1752 8.22758C38.605 8.04095 39.015 8.34791 39.3883 8.52472C41.5886 9.76728 43.8011 10.9877 46.0137 12.2131C46.4115 12.4169 46.8339 12.7632 46.7602 13.269C46.797 13.8388 46.2003 14.0966 45.7853 14.3274C43.504 15.4791 41.262 16.7094 38.9758 17.8537C38.3447 18.2884 37.4164 17.7113 37.5097 16.9574C37.4925 14.4183 37.5024 11.8767 37.5073 9.33754C37.4655 8.87342 37.6865 8.34791 38.1752 8.22758ZM39.4693 10.8281C39.462 12.3506 39.4718 13.8756 39.4669 15.3981C40.8666 14.6368 42.313 13.9615 43.6906 13.1585C42.2688 12.4047 40.8764 11.6041 39.4693 10.8281Z" fill="#F86D00"/>
    <path d="M4.05643 28.6658C4.89872 28.4473 5.77539 28.4964 6.63487 28.4915C10.7334 28.4964 14.8318 28.4939 18.9279 28.4915C20.0108 28.489 21.1429 28.4374 22.1546 28.8893C24.1609 29.6628 25.5655 31.7354 25.5434 33.8865C25.5434 38.8912 25.5655 43.8983 25.5336 48.9029C25.4648 51.5967 23.0878 53.9566 20.3964 54.0205C15.3132 54.0401 10.2275 54.0426 5.14428 54.018C2.35957 53.9591 -0.0469702 51.4126 0.0119655 48.6352C0.00950985 43.7214 0.0045986 38.8052 0.0144212 33.8915C-0.0346919 31.4923 1.73829 29.2429 4.05643 28.6658ZM4.95029 30.4928C3.31237 30.6917 1.94948 32.2167 1.97895 33.8767C1.96176 38.6284 1.98631 43.3826 1.96912 48.1367C1.68672 50.2289 3.54074 52.2622 5.66243 52.0682C10.4927 52.0608 15.3205 52.078 20.1508 52.0608C21.9778 52.1173 23.6231 50.472 23.5789 48.6499C23.5887 43.7239 23.5838 38.8003 23.5813 33.8743C23.6182 32.0546 21.9704 30.4216 20.1508 30.4634C15.0848 30.4756 10.0138 30.4142 4.95029 30.4928Z" fill="#F86D00"/>
    <path d="M32.5396 28.6685C33.2198 28.4867 33.932 28.4843 34.6318 28.4892C39.3884 28.5088 44.145 28.4696 48.9016 28.5088C51.593 28.5801 53.9652 30.9547 54.0192 33.651C54.0512 38.6433 54.0315 43.6381 54.0291 48.6305C54.1027 51.4177 51.6716 53.9617 48.8869 54.0182C43.8897 54.0501 38.8924 54.028 33.8951 54.028C31.1153 54.0968 28.5737 51.6804 28.5099 48.9006C28.4755 43.8984 28.505 38.8963 28.4952 33.8966C28.4608 31.4974 30.2141 29.2406 32.5396 28.6685ZM30.4646 33.8818C30.4499 38.55 30.472 43.2158 30.4548 47.884C30.4572 48.5028 30.4425 49.1363 30.6389 49.7331C31.1006 51.0812 32.4488 52.0954 33.8902 52.0635C36.5841 52.0758 39.2755 52.0635 41.9693 52.0684C41.962 49.1683 41.9669 46.2657 41.9669 43.3656C41.0779 43.368 40.189 43.3705 39.3 43.3656C39.3 42.7124 39.3 42.0592 39.3 41.4059C40.1865 41.3986 41.0755 41.401 41.962 41.4059C42.0111 39.412 41.655 37.1036 43.0916 35.478C44.1917 34.1618 46.0261 34.0537 47.6124 34.1102C47.6223 34.7659 47.6321 35.4191 47.6444 36.0747C46.5712 36.1091 45.2231 35.9004 44.4913 36.8851C43.5974 38.2087 44.0444 39.8982 43.924 41.3888C44.813 41.4109 45.7044 41.4084 46.5933 41.3961C46.5982 42.0518 46.5982 42.7074 46.5933 43.3656C45.7068 43.3729 44.8179 43.3705 43.9314 43.368C43.9339 46.2681 43.9289 49.1683 43.9339 52.0684C45.5865 52.0512 47.2392 52.0979 48.8918 52.0512C50.6255 51.9677 52.1136 50.3617 52.0645 48.6256C52.0744 43.7093 52.0694 38.7907 52.067 33.8745C52.0965 32.0646 50.4733 30.4316 48.661 30.4635C43.7374 30.4562 38.8138 30.4513 33.8902 30.466C32.0681 30.4144 30.4204 32.0597 30.4646 33.8818Z" fill="#F86D00"/>
    <path d="M19.4951 33.5182C20.3202 33.0664 21.3933 33.9455 21.0815 34.8418C20.8948 35.6325 19.7554 35.9444 19.2103 35.3305C18.6553 34.8271 18.8247 33.8325 19.4951 33.5182Z" fill="#F86D00"/>
    <path d="M11.1704 36.0134C14.3702 35.0238 18.0414 37.256 18.67 40.5318C19.3748 43.432 17.5551 46.6268 14.7238 47.5329C12.5849 48.2917 10.0556 47.6827 8.48395 46.0521C7.06213 44.645 6.45313 42.4963 6.88532 40.549C7.32489 38.3979 9.05367 36.5831 11.1704 36.0134ZM11.8433 37.865C10.2348 38.2211 8.95053 39.6552 8.74671 41.2857C8.39801 43.4541 10.1121 45.6445 12.2878 45.8631C14.6403 46.224 16.9584 44.1269 16.8479 41.7498C16.8798 39.2549 14.2572 37.2069 11.8433 37.865Z" fill="#F86D00"/>
</svg>
