<svg width="41" height="60" viewBox="0 0 41 60" fill="none" xmlns="http://www.w3.org/2000/svg">
<path d="M13.4275 3.63195C13.9482 2.15921 14.7047 0.329778 16.4536 0.0622673C18.0673 -0.24839 19.5199 0.651941 20.6647 1.68459C21.8095 0.473601 23.5124 -0.337561 25.1922 0.154314C26.6679 0.594412 27.3036 2.15921 27.7839 3.4795C28.7993 6.62922 29.458 9.8825 30.3699 13.061C33.5656 13.8923 37.2274 13.9556 39.9226 16.1302C40.915 16.8579 40.7913 18.4054 39.8219 19.0958C37.538 20.8619 34.558 21.2359 31.8023 21.7421C31.7304 22.746 31.6384 23.7499 31.5291 24.7509C34.3595 27.0032 37.2331 29.2411 39.6608 31.9392C40.1671 32.4311 39.96 33.2825 39.3617 33.5932C36.957 35.1752 34.4803 36.6508 32.0785 38.2386C33.2118 39.7229 34.5695 41.0259 35.7258 42.49C36.1947 43.0078 35.815 43.6982 35.6223 44.2447C33.6088 48.9678 31.6844 53.7284 29.6709 58.4515C29.4667 59.2828 28.2442 59.441 27.7839 58.7535C27.4359 58.3595 27.6085 57.8187 27.7753 57.3901C29.7112 52.7187 31.6787 48.0589 33.6116 43.3846C32.3115 41.7393 30.81 40.2665 29.5069 38.627C29.0755 38.1264 29.3056 37.3297 29.8694 37.042C32.2798 35.4974 34.7104 33.9872 37.1209 32.4454C35.2455 30.4952 33.1658 28.7463 30.9854 27.147C29.9614 29.8394 28.5519 32.4685 26.2939 34.3295C25.5633 34.807 25.7618 35.7476 25.6841 36.4869C25.3188 43.3041 24.9161 50.1155 24.5479 56.9327C24.5076 57.4793 24.499 58.0373 24.3552 58.5723C24.1078 59.4036 22.7444 59.3749 22.4308 58.6011C22.2266 58.1782 22.3474 57.6893 22.3417 57.2405C22.7501 50.1731 23.1471 43.1056 23.5412 36.0381C21.7031 36.671 19.7126 36.6652 17.8717 36.0583C18.2657 43.2178 18.6771 50.3744 19.0798 57.5339C19.0798 58.02 19.1891 58.6529 18.6972 58.9606C18.1967 59.3979 17.2676 59.208 17.0519 58.5608C16.9541 58.2156 16.8994 57.8618 16.8908 57.5023C16.4938 50.127 16.0739 42.7518 15.6453 35.3794C15.6999 34.7725 15.1016 34.4935 14.7363 34.1253C12.5991 32.3333 11.2731 29.7962 10.344 27.2103C8.18662 28.7722 6.15584 30.5211 4.29765 32.4339C6.67935 34.0189 9.1416 35.4772 11.5348 37.0449C12.2022 37.3728 12.3 38.3048 11.7678 38.8024C10.4705 40.3528 9.07545 41.8169 7.80117 43.3875C9.74854 48.1394 11.7764 52.8568 13.7094 57.6116C14.279 58.6327 12.9357 59.674 12.0526 58.975C11.5837 58.3221 11.3594 57.5368 11.0401 56.8091C9.2883 52.6209 7.55667 48.427 5.79341 44.2447C5.60644 43.6982 5.19223 43.0049 5.68698 42.4987C6.84619 41.0317 8.1895 39.72 9.34008 38.2415C6.94399 36.6393 4.45585 35.181 2.04826 33.596C1.34928 33.2509 1.28024 32.2527 1.8843 31.781C4.4616 29.0685 7.31793 26.6091 10.3785 24.4546C11.0228 23.9254 12.0238 24.3942 12.1015 25.2054C12.7142 27.9409 13.8763 30.6879 16.0394 32.5547C17.6674 34.0016 19.9772 34.7121 22.1173 34.2058C24.0417 33.7283 25.6784 32.4196 26.8174 30.826C28.6641 28.3005 29.5472 25.1594 29.5904 22.0528C22.3359 22.6511 14.9837 22.6856 7.78967 21.4545C5.733 21.0662 3.62168 20.5743 1.8469 19.4093C1.09327 18.9232 0.402921 18.0229 0.704949 17.0823C1.09039 16.0698 2.11154 15.5175 3.03776 15.0774C5.51727 13.9901 8.21826 13.5644 10.879 13.1875C11.7448 10.0062 12.4495 6.78168 13.4275 3.63195ZM15.2915 4.90622C14.4746 7.8546 13.7267 10.8202 12.9846 13.7887C18.027 14.5769 23.2075 14.5913 28.2528 13.8146C27.7897 11.5537 27.1223 9.33885 26.5729 7.09809C26.1875 5.70013 25.897 4.25039 25.2124 2.95886C24.9938 2.56479 24.6917 2.0499 24.1538 2.18797C22.9083 2.21386 22.241 3.40759 21.3407 4.0778C20.9207 4.46037 20.2246 4.42298 19.8507 3.99151C18.9302 3.22637 18.0903 1.97224 16.7211 2.20523C15.8466 2.81216 15.6424 3.96562 15.2915 4.90622ZM9.30844 15.5865C7.47038 15.8713 5.61219 16.1733 3.85755 16.8061C3.45197 17.0247 2.71847 17.1369 2.87955 17.7525C3.58716 18.1983 4.39832 18.4428 5.19798 18.6557C9.78593 19.8552 14.5465 20.1831 19.2725 20.2809C24.3983 20.324 29.5673 20.0968 34.5925 19.0095C35.8927 18.6758 37.2878 18.4802 38.4211 17.7151C38.6081 17.1484 37.8573 17.0564 37.5035 16.8435C35.4411 16.133 33.2636 15.6843 31.089 15.529C25.2469 16.7026 19.1977 16.8723 13.2952 16.0381C11.9663 15.8914 10.6604 15.3506 9.30844 15.5865Z" fill="#F86D00"/>
</svg>
