<svg width="59" height="58" viewBox="0 0 59 58" fill="none" xmlns="http://www.w3.org/2000/svg">
<path d="M8.30361 0.0077642C18.655 0.0053479 29.0077 0.00897232 39.3603 0.00655603C39.6962 -0.0514351 39.8713 0.289263 40.0888 0.477734C43.4885 3.88471 46.8943 7.28445 50.2977 10.6878C50.4958 10.9306 50.8836 11.1094 50.8305 11.4755C50.828 20.3264 50.8329 29.1761 50.8268 38.027C52.6983 37.7032 54.5552 37.2031 56.2708 36.3815C57.1165 35.9877 57.7966 35.334 58.5554 34.8061C58.5699 41.2479 58.559 47.6898 58.5614 54.1316C57.7532 53.5638 57.0222 52.8703 56.1137 52.462C54.4452 51.6718 52.6391 51.2309 50.8341 50.8829C50.8256 51.9654 50.8317 53.0491 50.8293 54.1328C47.978 54.1377 45.1268 54.1268 42.2756 54.1389C41.9687 54.9254 41.7077 55.7336 41.3574 56.5032C40.5443 58.1052 38.0917 58.3747 36.8836 57.0844C36.1321 56.3099 36.0149 55.1259 36.3411 54.1328C34.0831 54.1353 31.8263 54.1304 29.5682 54.1353C29.5622 55.4219 29.5707 56.7098 29.5646 57.9977C20.5446 58.0013 11.5245 58.0001 2.50449 57.9977C2.49845 51.9944 2.5057 45.9911 2.50087 39.9878C2.51657 39.5964 2.2834 39.2593 2.15292 38.9041C1.44132 37.1765 0.691061 35.4633 0 33.7272C2.77029 32.5988 5.52728 31.4402 8.29636 30.3069C8.31086 20.208 8.29515 10.1079 8.30361 0.0077642ZM10.2354 1.9408C10.2366 11.1276 10.2366 20.3155 10.2354 29.5023C15.0572 27.5137 19.8777 25.5215 24.697 23.528C24.819 23.4893 25.0486 23.3456 25.092 23.5594C26.0574 25.8936 27.0565 28.2132 28.0073 30.5534C23.6399 32.3572 19.2736 34.1646 14.9037 35.9647C12.7653 36.8708 10.5979 37.7093 8.47396 38.648C8.69747 38.6637 8.92218 38.6661 9.1469 38.6673C15.9524 38.6685 22.7579 38.6649 29.5646 38.6697C29.5694 43.1798 29.567 47.6898 29.5646 52.1986C32.0679 52.201 34.57 52.1938 37.0733 52.2034C37.3548 51.516 37.5964 50.8116 37.8598 50.117C37.2339 49.9237 36.613 49.6893 36.0669 49.3196C34.5204 48.3241 33.502 46.5553 33.4367 44.7153C33.3546 43.1133 33.9973 41.4992 35.1354 40.372C36.2034 39.2932 37.71 38.6589 39.231 38.6685C42.4532 38.6577 45.6898 38.7531 48.8938 38.329C48.8986 29.7439 48.8926 21.1588 48.8974 12.5737C45.3527 12.5725 41.8092 12.5761 38.2657 12.5713C38.2585 9.02901 38.2693 5.48672 38.2609 1.94443C28.9195 1.93718 19.5768 1.94443 10.2354 1.9408ZM40.2024 3.32172C40.1927 5.76097 40.2012 8.20022 40.1975 10.6383C42.6356 10.6371 45.0748 10.6419 47.5129 10.6359C47.241 10.3241 46.9414 10.0366 46.6491 9.74545C44.4961 7.60823 42.3758 5.43719 40.2024 3.32172ZM21.5655 26.8613C22.4232 27.9293 23.3584 28.9345 24.256 29.9687C24.6366 29.8092 25.0171 29.6485 25.3977 29.4854C24.906 28.2893 24.3732 27.1114 23.8706 25.9214C23.0926 26.2101 22.3363 26.5544 21.5655 26.8613ZM18.08 28.3135C18.9426 29.3742 19.8753 30.377 20.7645 31.4148C21.313 31.1949 21.8627 30.9787 22.4003 30.7322C21.5135 29.721 20.6388 28.6977 19.7375 27.6997C19.1625 27.7892 18.6369 28.1311 18.08 28.3135ZM14.4978 29.8672C15.3906 30.9098 16.2871 31.9512 17.2137 32.9637C17.7489 32.7281 18.2962 32.5239 18.829 32.2823C17.9362 31.2529 17.0301 30.2344 16.1421 29.2027C15.5887 29.4105 15.0451 29.6425 14.4978 29.8672ZM10.935 31.3169C11.8024 32.3729 12.7194 33.3889 13.6243 34.4122C14.1607 34.1827 14.7116 33.9857 15.236 33.7296C14.3444 32.6954 13.4636 31.6468 12.5261 30.6537C11.9969 30.8772 11.4641 31.0934 10.935 31.3169ZM7.93512 32.5625C8.35194 33.7671 8.90285 34.9233 9.33658 36.123C10.1412 35.8862 10.8939 35.4971 11.6731 35.1866C10.9144 34.2564 10.1219 33.3527 9.35591 32.4272C9.24838 32.3258 9.17831 32.1614 9.02367 32.1276C8.65156 32.2484 8.30119 32.4248 7.93512 32.5625ZM2.50691 34.8085C2.98775 35.9961 3.46497 37.1849 3.95548 38.3689C5.14551 37.8796 6.36091 37.4435 7.52677 36.895C7.02901 35.7243 6.55783 34.5427 6.08786 33.3599C4.88455 33.819 3.69935 34.3204 2.50691 34.8085ZM44.0648 40.5943C44.0636 43.1761 44.0636 45.758 44.066 48.3398C48.3235 48.434 52.6536 48.9221 56.6259 50.5434C56.6284 46.4925 56.6284 42.4416 56.6259 38.3907C52.6523 40.0072 48.3236 40.5013 44.0648 40.5943ZM4.43995 40.6028C4.4327 41.8919 4.43995 43.1798 4.43632 44.4677C5.72421 44.464 7.0121 44.4701 8.29998 44.4652C8.30361 43.1773 8.29998 41.8895 8.3024 40.6028C7.01451 40.604 5.72663 40.5992 4.43995 40.6028ZM10.2354 40.6016C10.2403 41.8895 10.2306 43.1761 10.2391 44.464C10.6631 44.4689 11.0884 44.4797 11.5125 44.4471C11.8918 43.1568 12.3497 41.8895 12.7375 40.6016C11.9027 40.604 11.0691 40.6016 10.2354 40.6016ZM14.7575 40.6209C14.3649 41.9076 13.9372 43.1834 13.5168 44.4604C14.1112 44.464 14.7056 44.4846 15.3 44.4592L15.3749 44.3976C15.7905 43.1351 16.2146 41.8738 16.5988 40.6016C15.985 40.6064 15.3701 40.5822 14.7575 40.6209ZM18.6272 40.6656C18.2008 41.9245 17.8105 43.1967 17.3841 44.4568C18.0038 44.4652 18.6248 44.4882 19.2446 44.4471C19.6312 43.158 20.0698 41.8834 20.4805 40.6016C19.868 40.6439 19.212 40.5122 18.6272 40.6656ZM22.4873 40.6209C22.1007 41.9088 21.6657 43.1822 21.2489 44.4604C21.8687 44.4677 22.4897 44.4858 23.1095 44.4495C23.4913 43.158 23.9479 41.8907 24.337 40.6016C23.7208 40.6124 23.1034 40.581 22.4873 40.6209ZM26.3558 40.6221C25.9595 41.9076 25.5403 43.1846 25.1138 44.4604C25.9523 44.4773 26.7919 44.4628 27.6304 44.4652C27.6352 43.1773 27.6304 41.8907 27.6328 40.6028C27.2075 40.6004 26.781 40.5883 26.3558 40.6221ZM35.3722 44.7214C35.4628 46.6 37.1011 48.2335 38.9773 48.3253C40.0272 48.3434 41.0783 48.3277 42.1294 48.3337C42.1306 45.7567 42.1294 43.1798 42.1306 40.6028C40.9997 40.6209 39.8665 40.5641 38.7381 40.6318C36.7736 40.8468 35.1982 42.7497 35.3722 44.7214ZM4.43632 46.4007C4.43753 49.6216 4.43753 52.8438 4.43632 56.0647C12.1673 56.0647 19.8994 56.0671 27.6304 56.0635C27.6316 52.8438 27.6352 49.624 27.6292 46.4043C19.8982 46.3971 12.1673 46.4043 4.43632 46.4007ZM39.8798 50.2897C39.3373 51.8724 38.6958 53.42 38.1425 54.9991C37.9951 55.3857 38.2524 55.788 38.5774 55.9861C39.0123 56.2266 39.5608 55.9016 39.7167 55.4691C40.4005 53.739 41.0638 52.0005 41.744 50.2692C41.123 50.2704 40.5008 50.2438 39.8798 50.2897ZM43.7386 50.2825C43.5163 50.9264 43.2505 51.5547 43.0282 52.1986C44.983 52.1974 46.9378 52.2022 48.8938 52.1974C48.895 51.6646 48.901 51.1318 48.8926 50.599C47.1831 50.3912 45.4602 50.2789 43.7386 50.2825Z" fill="#F86D00"/>
</svg>
