<svg width="33" height="53" viewBox="0 0 33 53" fill="none" xmlns="http://www.w3.org/2000/svg">
<path d="M0.000213125 0.00497863C10.8914 -0.00296862 21.7827 0.000437289 32.6727 0.00270793C32.6467 0.817869 32.7658 1.66028 32.4992 2.44819C32.11 3.66412 31.158 4.69499 29.9655 5.15707C29.9202 7.78988 29.9758 10.4238 29.9383 13.0566C29.7715 17.7103 26.7931 22.1131 22.5678 24.0477C21.6431 24.5041 20.5868 24.6948 19.7562 25.3363C19.434 25.5849 19.0789 25.9017 19.0573 26.3376C19.0732 26.6544 19.2899 26.911 19.5077 27.121C20.0909 27.6546 20.8296 27.9714 21.5625 28.2404C25.6926 29.8208 28.8491 33.6412 29.6966 37.9735C30.0472 39.5993 29.927 41.2694 29.9497 42.919C29.9587 44.4483 29.9292 45.9776 29.9655 47.5057C31.1807 47.9939 32.1599 49.0531 32.5264 50.3156C32.7613 51.0786 32.6467 51.8846 32.6716 52.6691C21.7827 52.6737 10.8937 52.6714 0.00475171 52.6703C0.0319826 51.8869 -0.0780756 51.082 0.146579 50.319C0.519869 49.06 1.49224 47.9939 2.71196 47.5102C2.75961 44.9944 2.69607 42.4762 2.74373 39.9615C2.91846 34.8968 6.32005 30.1251 11.0355 28.2892C11.8422 27.9918 12.6819 27.6682 13.2878 27.0336C13.5158 26.794 13.7166 26.4466 13.5771 26.1106C13.4182 25.7393 13.0915 25.4736 12.7692 25.2454C11.9035 24.6505 10.8483 24.4598 9.92474 23.9818C5.64835 21.936 2.70969 17.3504 2.72898 12.5957C2.73011 10.1275 2.72217 7.65818 2.73465 5.18999C1.5206 4.68591 0.527812 3.64368 0.153387 2.37439C-0.0780759 1.60578 0.0297133 0.795162 0.000213125 0.00497863ZM1.83376 1.82376C1.93588 2.23248 2.08565 2.64347 2.38405 2.95227C2.8084 3.42684 3.4574 3.6312 4.08031 3.62893C12.2133 3.62893 20.3474 3.62893 28.4815 3.62893C29.0907 3.6505 29.7307 3.49155 30.1845 3.06467C30.551 2.74678 30.7314 2.28243 30.8426 1.82263C27.4819 1.7897 24.1211 1.81809 20.7592 1.80787C14.4507 1.82036 8.14112 1.78743 1.83376 1.82376ZM4.53416 5.4443C4.53075 7.33575 4.53756 9.2272 4.53529 11.1186C5.90705 9.7642 7.86881 9.35322 9.70235 9.04895C12.3177 8.59596 15.0873 9.16248 17.3191 10.5964C18.3448 11.2095 19.3046 11.9826 20.471 12.3164C21.583 12.6173 22.7584 12.5298 23.8806 12.3346C24.7599 12.1631 25.6699 12.0303 26.4789 11.6227C27.146 11.2958 27.5749 10.6668 28.1343 10.2013C28.157 8.61639 28.1377 7.03262 28.1433 5.44771C20.2736 5.44544 12.4039 5.45112 4.53416 5.4443ZM10.2288 10.8178C8.86387 11.0494 7.41382 11.2197 6.24516 12.028C5.61659 12.5049 5.17522 13.1758 4.74293 13.8264C4.64081 13.9604 4.62493 14.1295 4.66237 14.2907C4.84618 15.4522 5.19904 16.592 5.74593 17.6343C6.96905 20.0321 9.16454 21.8917 11.7016 22.7704C13.0336 23.2075 14.3225 23.9966 15.0839 25.2034C15.5298 25.8733 15.5366 26.7929 15.1043 27.4707C14.3554 28.6764 13.0926 29.4791 11.7753 29.94C9.89978 30.6473 8.20806 31.8496 6.95998 33.4232C5.42824 35.3226 4.59543 37.7476 4.5421 40.1817C4.52621 42.2106 4.53643 44.2394 4.53302 46.2693C7.11542 44.2519 9.68534 42.2196 12.2621 40.1965C14.1682 38.7649 16.8403 38.4981 19.0278 39.4086C20.1658 39.8491 21.0406 40.729 22.0039 41.4454C24.0519 43.0507 26.0919 44.6674 28.1445 46.2682C28.1354 44.3189 28.1524 42.3706 28.1399 40.4213C28.1297 38.5321 27.6793 36.6327 26.7614 34.9774C25.6767 32.9645 23.9237 31.333 21.87 30.3408C21.1064 29.9445 20.2509 29.7493 19.5225 29.2815C18.6636 28.7479 17.833 28.0645 17.4098 27.1233C17.0899 26.391 17.2816 25.5225 17.7752 24.9162C18.5569 23.874 19.7233 23.161 20.951 22.7591C22.9218 22.0824 24.6907 20.8188 25.9558 19.159C27.3752 17.3198 28.107 15.0037 28.1502 12.6911C26.8794 13.6652 25.2557 13.9615 23.7115 14.2022C22.291 14.4031 20.7989 14.4202 19.434 13.9252C18.2824 13.5062 17.3157 12.7353 16.2877 12.0893C14.5188 10.9381 12.3131 10.442 10.2288 10.8178ZM13.3604 41.6372C10.9867 43.4946 8.62106 45.3633 6.24743 47.2219C12.9746 47.2275 19.7018 47.2275 26.4289 47.2219C24.0996 45.3985 21.7759 43.5673 19.4521 41.7371C18.6307 41.0809 17.6163 40.6381 16.5577 40.5984C15.4095 40.5314 14.2669 40.9413 13.3604 41.6372ZM2.67678 49.4562C2.21386 49.7775 1.95516 50.3077 1.83943 50.847C5.27393 50.8867 8.70843 50.8504 12.1429 50.864C18.3765 50.8606 24.609 50.8708 30.8415 50.8572C30.6917 49.8297 29.7522 49.0191 28.7107 49.0497C20.4994 49.035 12.2882 49.0497 4.0769 49.0418C3.58448 49.0441 3.08071 49.1644 2.67678 49.4562Z" fill="#F86D00"/>
</svg>
