<svg width="58" height="53" viewBox="0 0 58 53" fill="none" xmlns="http://www.w3.org/2000/svg">
<path d="M22.7802 1.33306C29.1388 -0.0997716 35.9819 0.732579 41.7965 3.67851C48.0183 6.80279 53.0392 12.2666 55.5689 18.7619C56.868 22.0943 57.5784 25.6793 57.522 29.2584C57.5755 30.1532 56.2526 30.4297 55.7948 29.7489C55.5481 28.9463 55.5659 28.0248 54.9981 27.347C53.4702 25.3702 50.4143 25.0461 48.3274 26.2917C47.1473 26.91 46.5438 28.1734 46.4338 29.4546C46.4011 30.2513 45.2359 30.397 44.7959 29.8411C44.5135 29.0147 44.5462 28.0604 43.9725 27.35C42.2245 25.1056 38.479 24.9599 36.4724 26.9308C35.6757 27.6235 35.5449 28.6936 35.3279 29.6597C35.0633 30.3108 34.231 30.1324 33.7286 29.9005C33.5473 29.0444 33.5027 28.108 32.9557 27.3856C32.2601 26.4017 31.1097 25.8755 29.9652 25.6199C29.9355 32.6859 29.9711 39.752 29.9474 46.8181C29.9771 48.887 28.6126 50.846 26.719 51.6308C25.304 52.1956 23.6364 52.157 22.2897 51.4227C20.5329 50.525 19.3765 48.5511 19.5043 46.5773C19.5876 45.7717 20.8272 45.5339 21.2255 46.2206C21.4871 47.0618 21.4425 48.025 22.0133 48.7562C22.9378 50.0731 24.8552 50.4923 26.2702 49.7462C27.4592 49.1635 28.134 47.8139 28.0478 46.5119C28.0359 39.5409 28.0657 32.57 28.033 25.602C26.9598 25.8755 25.8718 26.3274 25.1703 27.2192C24.5222 27.9594 24.4747 28.982 24.2695 29.8976C23.7701 30.1592 23.2232 30.1502 22.7148 29.9154C22.5067 29.0682 22.4889 28.1258 21.9419 27.4035C19.9978 24.7608 15.1731 24.948 13.6838 27.9594C13.2766 28.652 13.6571 29.9778 12.6047 30.1146C11.8824 30.2989 11.4721 29.5706 11.4692 28.9493C11.27 26.8 8.99293 25.5366 7.00718 25.5574C5.25032 25.5218 3.28538 26.3749 2.60166 28.0902C2.40844 28.6282 2.38168 29.2079 2.1944 29.746C1.74553 30.4416 0.40485 30.1413 0.479167 29.2406C0.413768 23.1793 2.41438 17.1121 6.04403 12.2577C10.078 6.7701 16.1184 2.78373 22.7802 1.33306ZM26.7309 7.03169C25.1881 12.9503 24.7987 19.0919 24.5549 25.1799C25.8659 24.2911 27.3819 23.6044 28.9991 23.6579C30.6162 23.6074 32.1382 24.2822 33.4432 25.1859C33.2114 19.0948 32.8071 12.9562 31.2761 7.03466C30.7738 5.40563 30.3457 3.59824 29.002 2.43593C27.6614 3.59824 27.2214 5.40266 26.7309 7.03169ZM19.7421 7.82242C15.9282 12.763 14.2248 18.9967 13.5946 25.1205C14.8342 24.3386 16.2017 23.6549 17.7029 23.6638C19.5281 23.5301 21.2493 24.3178 22.6613 25.4118C22.7594 21.3333 23.0418 17.2547 23.5858 13.2119C24.0793 9.74278 24.7303 6.25582 26.1126 3.01857C23.5323 3.8747 21.389 5.69993 19.7421 7.82242ZM31.8915 3.01857C33.1341 5.92288 33.7821 9.03825 34.2637 12.1506C34.9177 16.5413 35.2268 20.9736 35.3487 25.4088C36.6032 24.4427 38.0836 23.6965 39.6978 23.6638C41.3952 23.539 43.0182 24.1989 44.4095 25.1145C43.8773 19.8885 42.5545 14.6477 39.8315 10.1084C37.9885 7.03169 35.3755 4.18089 31.8915 3.01857ZM2.79489 25.0253C4.22177 24.1365 5.88053 23.4706 7.59279 23.6906C9.11481 23.7828 10.4793 24.5348 11.6624 25.4475C12.3521 17.5996 14.8342 9.38308 20.8034 3.91335C11.4454 6.79685 4.23961 15.3671 2.79489 25.0253ZM37.1977 3.91335C39.3173 5.89613 41.1187 8.20887 42.4118 10.8129C44.7156 15.3552 45.9226 20.3969 46.3358 25.4564C47.5873 24.4724 49.0706 23.7025 50.6967 23.6668C52.3257 23.533 53.8774 24.1841 55.2181 25.0521C53.7704 15.3849 46.5706 6.79388 37.1977 3.91335Z" fill="#F86D00"/>
</svg>
