<svg width="170" height="35" viewBox="0 0 170 35" fill="none" xmlns="http://www.w3.org/2000/svg">
<path d="M70.3101 25.9691C70.635 25.2521 71.292 25.1037 71.8076 25.079C72.7436 25.0861 72.56 25.5735 72.2103 26.9017C69.3741 26.8734 65.6902 26.997 64.5811 30.5646C63.9948 32.4756 64.5846 33.892 66.8911 33.8885C68.1555 33.8744 69.3741 33.6342 70.7586 32.6628L70.9458 32.6593C70.9423 33.6801 71.7511 33.8673 72.8284 33.8567L74.5202 33.8497L75.4386 30.9002C75.3821 30.9108 75.3255 30.9249 75.2514 30.9037C74.6015 30.9179 74.8063 30.4622 74.8911 30.1372L76.0002 26.5661C76.6006 24.6057 77.194 22.3732 73.005 22.3874C70.967 22.3838 67.6469 22.6558 66.6862 25.9691H70.3101ZM71.186 30.2538C71.0341 30.7236 70.5114 31.1757 69.7873 31.1722C68.8195 31.1828 68.8513 30.547 68.9644 30.2291C69.0845 29.7769 69.6566 28.9363 71.5816 28.9645L71.186 30.2538ZM75.6893 33.5989L81.111 33.5883L81.7715 31.4018L81.715 31.4124C81.0156 31.4159 81.1922 31.0592 81.3017 30.7377L82.5627 26.5908C82.9406 25.3757 83.4527 25.0578 84.4205 25.0437C85.307 25.0366 85.4201 25.5241 85.1163 26.4637L83.7953 30.7307C83.7282 30.9815 83.5446 31.4689 82.9159 31.4089L82.2307 33.5883L87.6029 33.5671L88.2881 31.3877L87.9172 31.37C87.6205 31.3735 87.2744 31.3594 87.4545 30.7907L89.1852 25.185C89.6126 23.8745 89.7291 22.3238 87.0695 22.3415C85.8616 22.3415 84.6466 22.7724 83.7424 23.1468H83.6364L83.813 22.5781L79.0871 22.5852L78.4267 24.7717L78.8046 24.7646C79.4227 24.7682 79.3344 25.0931 79.3026 25.2203L77.5931 30.7519C77.4412 31.2217 77.2823 31.4195 76.7384 31.4371L76.3675 31.4194L75.6893 33.5989ZM98.8771 16.9159L98.1919 19.0953L98.9725 19.0882C99.3186 19.0988 99.6082 19.1235 99.4104 19.7664L98.478 22.7653L98.3402 22.783C97.8563 22.3874 97.3901 22.3167 96.7508 22.3061C93.5296 22.3097 90.9866 24.9094 89.9905 28.0532C88.4647 32.9878 90.9901 33.7932 92.41 33.7967C93.5367 33.8002 94.4762 33.2986 95.2532 32.5922L95.3345 32.5886L95.2709 33.5388L100.184 33.5282L100.869 31.3488L100.17 31.3523C99.8237 31.3417 99.5341 31.317 99.7318 30.6741L103.977 16.9053L98.8771 16.9159ZM96.0303 30.6777C95.5676 31.0097 95.1932 31.098 94.7164 31.0804C93.6638 31.098 93.459 30.6671 94.0135 28.8797L94.2996 27.9083C94.8471 26.1493 95.2603 24.9977 96.493 25.0013C97.2736 24.9942 97.4996 25.4569 97.5914 25.7219L96.0303 30.6777Z" fill="white"/>
<path d="M159.412 0.51523C156.46 0.536423 151.01 1.46189 146.033 6.37531C142.229 10.1867 140.325 14.4642 139.449 17.3325C138.584 20.1654 137.563 24.8668 139.019 28.4698C140.661 32.6555 145.154 34.0402 149.057 34.0437C152.931 34.0013 158.399 32.5849 162.577 28.3744C166.219 24.7503 168.151 20.0594 169.02 17.2265C170.206 13.3339 170.358 9.16228 169.242 6.30466C167.331 1.39478 162.401 0.504633 159.412 0.51523ZM151.204 27.1099C147.993 27.0993 149.042 22.8605 150.257 18.8619L151.236 15.7535C152.514 11.6561 154.058 7.43499 157.268 7.44558C160.292 7.44558 159.646 11.0238 158.162 15.7571L157.23 18.8372C155.976 22.8287 154.39 27.0781 151.204 27.1099ZM125.286 33.3231L125.509 30.8965L125.275 30.9106C121.927 33.4291 119.561 34.1391 116.502 34.1285C114.58 34.1532 108.025 34.2098 105.877 28.7418C104.433 25.107 105.489 20.4126 106.372 17.5091C107.463 13.9733 109.823 9.69919 112.973 6.48127C117.961 1.529 122.98 0.642406 126.049 0.61768C135.702 0.578825 138.764 5.75362 136.694 12.5533L127.041 12.5921C128.309 7.95423 125.893 7.54095 124.629 7.55155C122.252 7.56921 120.489 8.44169 117.674 17.4526C114.955 26.2586 116.195 27.2017 118.95 27.2052C121.175 27.184 122.962 26.5094 123.41 25.1L123.478 24.8492C123.788 23.8213 124.078 23.0194 122.238 23.0265L121.394 23.0336L123.209 17.2018L137.185 17.1629L135.37 22.9947C133.763 23.1431 133.215 23.6093 132.795 24.9128L130.224 33.2984L125.286 33.3231Z" fill="#F86D00"/>
<path d="M59.6645 14.669C58.0327 20.1123 62.5714 20.5927 65.8491 20.5786C73.3123 20.575 75.6434 16.2303 76.3463 13.8919C77.7132 9.55781 74.0222 8.39217 71.0376 7.41019C70.0487 7.09228 69.0385 6.85208 69.4023 5.68643C69.5259 5.31554 69.8862 4.47131 71.3626 4.46425C72.6765 4.46425 73.1957 4.84222 72.6059 6.24454L78.6456 6.23747C79.85 1.69847 77.8509 0.229032 73.178 0.250225C65.7926 0.274951 63.4438 3.86377 62.5784 6.61542C61.2433 10.9319 64.6517 12.0516 68.2579 13.733C68.7383 13.9414 69.6884 14.4077 69.4094 15.3543C69.1056 16.2939 67.9294 16.3822 67.1736 16.3963C66.0221 16.3857 65.4358 16.0678 65.7572 14.6514L59.6645 14.669ZM75.4527 19.7979L83.9896 19.7838L85.0916 16.2374L84.9538 16.255C83.9401 16.2268 84.1379 15.6899 84.311 15.1459L85.3989 11.6525L89.3512 11.6277L88.288 15.1282C87.9914 16.0431 87.6735 16.2268 86.9777 16.2303L86.8152 16.2409L85.745 19.7661L94.2572 19.7449L95.3592 16.1985L94.5786 16.2056C93.6108 16.2162 93.7874 15.6475 93.9605 15.1035L97.0899 5.04001C97.2347 4.48898 97.4148 3.92027 98.3755 3.93087L99.1561 3.92382L100.258 0.377383L91.7141 0.416254L90.6439 3.94148L90.7746 3.94855C91.4739 3.94501 91.6894 4.13929 91.3927 5.05062L90.6545 7.43138L86.7022 7.45611L87.4404 5.07535C87.5922 4.49959 87.7653 3.9556 88.7013 3.96267L88.839 3.94501L89.934 0.423304L81.4465 0.451569L80.3516 3.97328L81.1251 3.99093C81.8315 3.96267 82.0399 4.18167 81.7432 5.09301L78.6385 15.1636C78.3489 16.0537 78.024 16.2621 77.3282 16.2656L76.5476 16.2727L75.4527 19.7979ZM17.3755 0.628183L15.659 6.2092L13.9424 6.19154C13.7058 6.19508 13.3632 6.3399 13.2643 6.71785C13.2007 6.83442 13.1689 7.19825 13.2572 8.26853L13.7941 15.3932L14.0307 15.3896L23.4824 0.628183L28.346 0.603455L29.5151 14.8775L29.7447 14.9057L34.3187 7.72103C34.5447 7.37487 34.7249 7.08522 34.8485 6.74965C34.9898 6.21274 34.7778 6.12443 33.3933 6.12796H32.3796L34.0891 0.578726L46.9174 0.543412L45.2079 6.09265L44.4556 6.12796C42.8803 6.21627 42.6613 6.15622 39.8039 10.561L26.7354 30.9388L20.6321 30.9352L19.629 17.9505L19.3217 17.9682L10.5693 30.9918L4.4236 31.013L3.25449 10.395C3.0567 6.56598 2.57281 6.23393 0.817396 6.23747L0.446533 6.241L2.12425 0.681176L17.3755 0.628183ZM48.2843 0.829527L47.1823 4.37594L48.1748 4.3724C48.4715 4.36887 48.7965 4.45719 48.6799 4.79982C48.6269 5.00116 48.468 5.19897 48.1748 5.68643L42.4671 14.9587C41.6759 16.2233 41.3969 16.6613 40.2984 16.6648H39.8957L38.7938 20.2112L45.4834 20.19L46.5536 16.6648L46.2887 16.6471C45.3704 16.6718 45.6883 16.0855 45.8472 15.7782L46.0167 15.4462L51.6609 15.4144C51.6786 15.9548 51.6079 16.1244 51.5868 16.1985C51.5267 16.4246 51.2865 16.6295 50.7426 16.6471L50.075 16.6295L48.9731 20.1759L57.6159 20.1653L58.7179 16.6189H58.3153C57.2698 16.6083 57.4005 15.8135 57.4393 14.9622L57.9797 0.801262L48.2843 0.829527ZM51.8693 5.83478L52.0318 5.82419L51.8093 11.2145L48.5563 11.2357L51.8693 5.83478Z" fill="#F86D00"/>
</svg>

