<svg width="32" height="32" viewBox="0 0 32 32" fill="none" xmlns="http://www.w3.org/2000/svg">
<path fill-rule="evenodd" clip-rule="evenodd" d="M9 0C4.02944 0 0 4.02944 0 9V23C0 27.9706 4.02944 32 9 32H23C27.9706 32 32 27.9706 32 23V9C32 4.02944 27.9706 0 23 0H9ZM23.8826 10.5088C20.8026 10.0596 17.6775 9.94348 14.5674 10.0234C12.6543 10.0927 10.7397 10.2209 8.84472 10.4907C8.10149 10.5827 7.45023 11.1736 7.34923 11.9259C6.87284 14.9214 6.89545 17.9848 7.34621 20.9818C7.48641 21.734 8.16783 22.3099 8.92311 22.3793C13.7005 23.0094 18.5579 23.0109 23.3413 22.4305C23.8554 22.3702 24.4192 22.2888 24.7931 21.8908C25.2416 21.4947 25.317 20.8729 25.3856 20.3069C25.3901 20.2698 25.3946 20.2329 25.3992 20.1963C25.7218 17.4963 25.7534 14.745 25.3343 12.0525C25.2363 11.2988 24.6559 10.6128 23.8826 10.5088ZM14.5599 13.7432C14.5674 13.5879 14.5759 13.412 14.7242 13.3385C14.9322 13.147 15.2262 13.2405 15.4237 13.3973C15.8829 13.7291 16.3414 14.0623 16.7999 14.3955C17.508 14.9101 18.2162 15.4248 18.9272 15.9345C19.2348 16.1124 19.4157 16.6928 19.0101 16.8662C18.406 17.2925 17.8081 17.7282 17.2102 18.164C16.5607 18.6373 15.9111 19.1107 15.2533 19.5722C14.9639 19.8074 14.5237 19.4803 14.5583 19.1411C14.5436 17.8193 14.5468 16.4975 14.5499 15.1758C14.5509 14.7352 14.5519 14.2946 14.5523 13.8541C14.5562 13.8197 14.558 13.7821 14.5599 13.7432Z" fill="white" fill-opacity="0.5"/>
</svg>
